<?xml version="1.0" encoding="utf-8" standalone="yes"?>
<!DOCTYPE svg PUBLIC "-//W3C//DTD SVG 1.1//EN" "http://www.w3.org/Graphics/SVG/1.1/DTD/svg11.dtd">
<svg width="128" height="128" viewBox="0 0 128 128" style="fill:none;stroke:none;fill-rule:evenodd;clip-rule:evenodd;stroke-linecap:round;stroke-linejoin:round;stroke-miterlimit:1.5;" version="1.1" xmlns="http://www.w3.org/2000/svg" xmlns:xlink="http://www.w3.org/1999/xlink"><g id="items" style="isolation: isolate"><g id="blend" style="mix-blend-mode: normal"><g id="g-root-ic_woma_1hitr5065s558-fill" data-item-order="0" transform="translate(4, 4)"></g><g id="g-root-ic_woma_1hitr5065s558-stroke" data-item-order="0" transform="translate(4, 4)"><g id="ic_woma_1hitr5065s558-stroke" fill="none" stroke-linecap="round" stroke-linejoin="round" stroke-miterlimit="4" stroke="#3992f1" stroke-width="4"><g><path d="M 16.201263 12.067088L 82.348076 12.067088C 82.348076 12.067088 86.482254 12.067088 86.482254 16.201263L 86.482254 82.348076C 86.482254 82.348076 86.482254 86.482254 82.348076 86.482254L 16.201263 86.482254C 16.201263 86.482254 12.067088 86.482254 12.067088 82.348076L 12.067088 16.201263C 12.067088 16.201263 12.067088 12.067088 16.201263 12.067088M 12.067088 74.079727L 86.482254 74.079727M 27.942324 94.750603L 89.12812 107.15313C 91.365791 107.610268 93.550217 106.166328 94.006447 103.928474L 107.070442 38.939232C 107.52758 36.701561 106.083649 34.517143 103.845795 34.060905L 94.750603 32.241867M 57.088264 60.395599C 63.348946 61.090168 69.643578 59.424374 74.741196 55.723988C 72.095322 53.078114 70.276283 51.589809 69.573471 41.089001C 68.539925 25.751209 58.163147 20.418123 49.27467 20.418123C 40.386192 20.418123 30.009411 25.833893 28.975868 41.089001C 28.273058 51.341759 26.536703 53.078114 23.808147 55.723988C 28.914358 59.406235 35.201897 61.070148 41.461079 60.395599M 78.007195 74.079727C 71.944801 70.927818 65.624062 68.299942 59.11401 66.224792C 57.902607 65.751976 57.10059 64.589867 57.088261 63.289524L 57.088264 57.584366C 57.091461 56.710052 57.449551 55.874516 58.080463 55.269222C 60.427971 53.162498 61.76627 50.155087 61.75988 47.000874L 61.759884 38.939232C 56.90099 38.176743 52.489265 35.66206 49.357353 31.869789C 46.18454 35.697109 41.707886 38.215225 36.789455 38.939228L 36.789459 46.87685C 36.78307 50.031055 38.121368 53.038471 40.468876 55.145199C 41.099792 55.750488 41.457878 56.586029 41.461079 57.460335L 41.461079 63.165501C 41.448746 64.465843 40.646729 65.627945 39.435329 66.100761C 32.925278 68.175911 26.604536 70.803795 20.542149 73.955704"></path></g></g></g></g></g></svg>