<?xml version="1.0" encoding="utf-8" standalone="yes"?>
<!DOCTYPE svg PUBLIC "-//W3C//DTD SVG 1.1//EN" "http://www.w3.org/Graphics/SVG/1.1/DTD/svg11.dtd">
<svg width="128" height="128" viewBox="0 0 128 128" style="fill:none;stroke:none;fill-rule:evenodd;clip-rule:evenodd;stroke-linecap:round;stroke-linejoin:round;stroke-miterlimit:1.5;" version="1.1" xmlns="http://www.w3.org/2000/svg" xmlns:xlink="http://www.w3.org/1999/xlink"><g id="items" style="isolation: isolate"><g id="blend" style="mix-blend-mode: normal"><g id="g-root-ic_1_zmk7f88nn4lc-fill" data-item-order="0" transform="translate(4, 4)"></g><g id="g-root-ic_1_zmk7f88nn4lc-stroke" data-item-order="0" transform="translate(4, 4)"><g id="ic_1_zmk7f88nn4lc-stroke" fill="none" stroke-linecap="round" stroke-linejoin="round" stroke-miterlimit="4" stroke="#3992f1" stroke-width="4"><g><path d="M 9.999992 10M 55.894726 16.150909L 29.964344 16.150909C 27.68112 16.150909 25.830166 18.001822 25.830166 20.285086L 25.830166 47.627453M 9.999992 10M 63.325489 103.069397L 89.255875 103.069397C 91.539177 103.069397 93.390053 101.218536 93.390053 98.935226L 93.390053 71.592613M 9.999992 10M 15.082921 36.872147L 25.835087 47.62431L 36.58725 36.872147M 9.999992 10M 104.137253 82.348083L 93.385086 71.595924L 82.632919 82.348083M 32.757557 86.672852C 38.582943 86.672852 43.305374 81.950371 43.305374 76.124908C 43.305374 70.299438 38.582943 65.577385 32.757557 65.577385C 26.932173 65.577385 22.209745 70.299438 22.209745 76.124908C 22.209745 81.950371 26.932173 86.672852 32.757557 86.672852ZM 50.438728 103.065681C 48.129292 95.498901 40.976879 89.825981 32.760822 89.825981C 24.544767 89.825981 17.392355 95.498901 15.082921 103.065681M 86.453316 37.24844C 92.278778 37.24844 97.001251 32.526051 97.001251 26.700624C 97.001251 20.87524 92.278778 16.152813 86.453316 16.152813C 80.627846 16.152813 75.905792 20.87524 75.905792 26.700624C 75.905792 32.526051 80.627846 37.24844 86.453316 37.24844ZM 104.134361 53.641193C 101.825012 46.074699 94.672882 40.401737 86.456619 40.401737C 78.240776 40.401737 71.088234 46.074699 68.778885 53.641193"></path></g></g></g></g></g></svg>