<?xml version="1.0" encoding="utf-8" standalone="yes"?>
<!DOCTYPE svg PUBLIC "-//W3C//DTD SVG 1.1//EN" "http://www.w3.org/Graphics/SVG/1.1/DTD/svg11.dtd">
<svg width="128" height="128" viewBox="0 0 128 128" style="fill:none;stroke:none;fill-rule:evenodd;clip-rule:evenodd;stroke-linecap:round;stroke-linejoin:round;stroke-miterlimit:1.5;" version="1.1" xmlns="http://www.w3.org/2000/svg" xmlns:xlink="http://www.w3.org/1999/xlink"><g id="items" style="isolation: isolate"><g id="blend" style="mix-blend-mode: normal"><g id="g-root-ic_shie_1qf3l445bqk24-fill" data-item-order="0" transform="translate(4, 4)"></g><g id="g-root-ic_shie_1qf3l445bqk24-stroke" data-item-order="0" transform="translate(4, 4)"><g id="ic_shie_1qf3l445bqk24-stroke" fill="none" stroke-linecap="round" stroke-linejoin="round" stroke-miterlimit="4" stroke="#3992f1" stroke-width="4"><g><path d="M 62.161491 105.180542L 62.161491 105.180542C 60.519573 105.81411 58.700653 105.81411 57.058735 105.180542L 57.058735 105.180542C 30.816828 94.89093 13.551353 69.583229 13.543579 41.396111L 13.543579 20.630737C 13.543579 16.716608 16.716608 13.543579 20.630739 13.543579L 98.589493 13.543579C 102.503624 13.543579 105.676651 16.716608 105.676651 20.630737L 105.676651 41.325241C 105.698044 69.538223 88.42749 94.881485 62.161488 105.180534ZM 48.979374 48.979374L 70.240852 48.979374C 70.240852 48.979374 77.328011 48.979374 77.328011 56.066532L 77.328011 70.240852C 77.328011 70.240852 77.328011 77.328011 70.240852 77.328011L 48.979374 77.328011C 48.979374 77.328011 41.892216 77.328011 41.892216 70.240852L 41.892216 56.066532C 41.892216 56.066532 41.892216 48.979374 48.979374 48.979374M 70.240852 48.979374L 70.240852 41.892216C 70.240852 36.021019 65.481308 31.261478 59.610115 31.261478C 53.738922 31.261478 48.979374 36.021019 48.979374 41.892216L 48.979374 48.979374"></path></g></g></g></g></g></svg>