<?xml version="1.0" encoding="utf-8" standalone="yes"?>
<!DOCTYPE svg PUBLIC "-//W3C//DTD SVG 1.1//EN" "http://www.w3.org/Graphics/SVG/1.1/DTD/svg11.dtd">
<svg width="128" height="128" viewBox="0 0 128 128" style="fill:none;stroke:none;fill-rule:evenodd;clip-rule:evenodd;stroke-linecap:round;stroke-linejoin:round;stroke-miterlimit:1.5;" version="1.1" xmlns="http://www.w3.org/2000/svg" xmlns:xlink="http://www.w3.org/1999/xlink"><g id="items" style="isolation: isolate"><g id="blend" style="mix-blend-mode: normal"><g id="g-root-ic_laye_4otkf86zsbno-fill" data-item-order="0" transform="translate(4, 4)"></g><g id="g-root-ic_laye_4otkf86zsbno-stroke" data-item-order="0" transform="translate(4, 4)"><g id="ic_laye_4otkf86zsbno-stroke" fill="none" stroke-linecap="round" stroke-linejoin="round" stroke-miterlimit="4" stroke="#3992f1" stroke-width="4"><g><path d="M 41.892216 77.328011L 41.892216 38.348637C 41.892216 34.434505 45.065243 31.261478 48.979374 31.261478L 87.958748 31.261478M 95.045906 48.979374L 95.045906 98.589493C 95.045906 102.503624 91.872879 105.676651 87.958748 105.676651L 48.979374 105.676651C 45.065243 105.676651 41.892216 102.503624 41.892216 98.589493M 31.261477 87.958748C 27.347347 87.958748 24.174316 84.785728 24.174316 80.87159L 24.174316 20.630739C 24.174316 16.716608 27.347347 13.543579 31.261477 13.543579L 70.240852 13.543579C 74.154984 13.543579 77.328011 16.716608 77.328011 20.630739L 77.328011 31.261478M 13.543579 105.676651L 105.676643 13.543579"></path></g></g></g></g></g></svg>