<?xml version="1.0" encoding="UTF-8" standalone="no"?>
<!-- Created with Inkscape (http://www.inkscape.org/) -->

<svg
   width="210mm"
   height="297mm"
   viewBox="0 0 210 297"
   version="1.1"
   id="svg1"
   xml:space="preserve"
   inkscape:version="1.3.2 (091e20e, 2023-11-25)"
   sodipodi:docname="ant.svg"
   xmlns:inkscape="http://www.inkscape.org/namespaces/inkscape"
   xmlns:sodipodi="http://sodipodi.sourceforge.net/DTD/sodipodi-0.dtd"
   xmlns="http://www.w3.org/2000/svg"
   xmlns:svg="http://www.w3.org/2000/svg"><sodipodi:namedview
     id="namedview1"
     pagecolor="#ffffff"
     bordercolor="#000000"
     borderopacity="0.25"
     inkscape:showpageshadow="2"
     inkscape:pageopacity="0.0"
     inkscape:pagecheckerboard="0"
     inkscape:deskcolor="#d1d1d1"
     inkscape:document-units="mm"
     inkscape:zoom="0.99849126"
     inkscape:cx="384.58023"
     inkscape:cy="528.79782"
     inkscape:window-width="1312"
     inkscape:window-height="773"
     inkscape:window-x="0"
     inkscape:window-y="34"
     inkscape:window-maximized="0"
     inkscape:current-layer="layer1" /><defs
     id="defs1" /><g
     inkscape:label="Layer 1"
     inkscape:groupmode="layer"
     id="layer1"><path
       style="fill:#000000"
       d="m 78.728757,169.477 c -1.655456,-1.06056 -3.041532,-2.09286 -3.080169,-2.294 -0.03864,-0.20114 1.767661,-6.12802 4.013996,-13.17085 l 4.084245,-12.80512 -0.558405,-0.75529 -0.558405,-0.75528 -0.31969,0.76032 c -0.398575,0.94793 -1.333259,1.62196 -2.249186,1.62196 -0.674402,0 -0.703884,0.0637 -0.827193,1.7871 -0.361981,5.05916 -5.276335,9.84175 -13.595088,13.23058 -4.112005,1.67512 -6.889307,2.29605 -10.292942,2.30122 -2.499327,0.004 -3.065714,-0.0781 -4.009886,-0.58007 -2.802661,-1.48991 -3.409723,-4.44028 -1.797362,-8.73533 2.160906,-5.75627 7.134371,-11.22952 12.686415,-13.96128 6.251693,-3.07601 11.342231,-2.84723 14.488846,0.65117 l 1.121572,1.24696 0.79375,-0.48233 c 1.013155,-0.61564 1.750828,-0.61254 2.544006,0.0107 l 0.630994,0.4958 0.01132,-1.75257 c 0.01259,-1.94926 0.457482,-3.05571 1.804239,-4.48713 1.130191,-1.20124 1.525115,-1.38081 6.805231,-3.09446 3.991834,-1.29553 4.782054,-1.47272 5.906525,-1.32443 1.408338,0.18572 2.45434,0.63826 3.795081,1.6419 l 0.8599,0.64368 0.003,-1.00565 c 0.003,-1.28549 0.994,-3.41673 2.10441,-4.52714 2.48454,-2.48455 6.49171,-2.86038 9.40238,-0.88185 0.67033,0.45565 2.00411,2.06247 3.63802,4.38277 2.19633,3.11896 2.57969,3.81676 2.57969,4.69555 0,1.24147 -0.56508,2.18434 -1.53425,2.55997 -1.27763,0.49518 -7.90323,1.89317 -8.97246,1.89317 -1.50324,0 -3.29619,-0.68695 -4.51433,-1.72963 l -1.05981,-0.90716 -0.16844,1.11996 c -0.0926,0.61598 -0.44673,1.60942 -0.78687,2.20765 l -0.61845,1.08769 6.70383,6.4519 c 4.68816,4.51198 7.08375,6.63022 7.96741,7.04497 0.69497,0.32619 2.30471,1.0628 3.5772,1.6369 1.77473,0.8007 2.27656,1.14042 2.15451,1.45849 -0.23318,0.60765 -0.66885,0.53582 -4.7401,-0.78148 l -3.69678,-1.19613 -6.95373,-6.69444 -6.953727,-6.69444 -2.637418,0.91138 c -1.690981,0.58433 -2.637418,1.04758 -2.637418,1.29094 0,0.20875 1.212937,4.05527 2.695414,8.54781 l 2.695414,8.16826 2.874815,2.03139 c 2.8217,1.99386 3.40194,2.76153 2.25436,2.98254 -0.48771,0.0939 -5.474676,-2.62128 -6.450549,-3.51206 -0.417524,-0.38111 -1.40154,-3.00791 -3.373233,-9.00474 -1.773154,-5.39298 -2.909104,-8.46504 -3.129048,-8.46217 -0.189914,0.002 -1.031196,0.17053 -1.869515,0.37347 -1.32878,0.32167 -1.710007,0.31726 -2.973196,-0.0343 l -1.44898,-0.4033 -0.921948,2.94025 c -0.507071,1.61713 -2.217581,7.01544 -3.801132,11.99623 -2.604122,8.19083 -2.838646,9.0905 -2.454856,9.41726 0.233381,0.1987 1.347063,0.99716 2.474849,1.77435 1.974176,1.36047 2.510237,2.14125 1.687002,2.45716 -0.199935,0.0767 -1.717982,-0.72823 -3.373437,-1.78879 z m -54.159053,-9.9997 c 0.07767,-0.54483 0.355771,-0.63634 3.417206,-1.12447 l 3.332659,-0.53138 17.660174,-16.00729 c 9.713096,-8.80401 17.878734,-16.11099 18.145862,-16.23774 0.700627,-0.33243 12.42015,5.83841 12.895447,6.79002 0.712374,1.42626 -0.69435,2.76696 -2.188785,2.08605 -0.34412,-0.15679 -2.624022,-1.67409 -5.066448,-3.37177 -2.442426,-1.69768 -4.591795,-3.14464 -4.776375,-3.21547 -0.351206,-0.13477 -1.313284,0.7132 -22.655412,19.96841 l -13.186888,11.89741 -2.158946,0.16809 c -1.18742,0.0924 -2.911368,0.16879 -3.830994,0.16966 -1.581271,0.002 -1.667458,-0.0306 -1.5875,-0.59152 z m 57.468531,-30.03646 c -0.416784,-0.27446 -1.068608,-1.67161 -3.15012,-6.75208 l -1.819523,-4.44102 -2.927976,2.91967 c -1.610386,1.60581 -3.110659,2.91966 -3.333939,2.91966 -0.523871,0 -1.040964,-0.52091 -1.040964,-1.04864 0,-0.22751 1.66748,-2.07794 3.705512,-4.11207 3.149486,-3.14346 3.774788,-3.65556 4.167188,-3.41277 0.515952,0.31923 6.925588,11.91501 6.936816,12.54951 0.01333,0.75304 -0.789363,1.58038 -1.529206,1.57617 -0.391931,-0.002 -0.845435,-0.0915 -1.007788,-0.19843 z m 6.517143,-2.63033 c -0.343545,-0.43675 -0.506749,-0.92708 -0.418314,-1.25678 0.07976,-0.29734 1.109311,-2.41585 2.287899,-4.7078 1.841966,-3.582 2.229823,-4.16719 2.76197,-4.16719 0.501082,0 1.188569,0.81951 3.606847,4.29948 3.034804,4.36717 3.55208,5.55648 2.472976,5.68582 -0.401789,0.0482 -1.134213,-0.75674 -3.042709,-3.34376 -1.408685,-1.90952 -2.586246,-3.27485 -2.678944,-3.10613 -0.09097,0.16558 -0.612757,1.61074 -1.159524,3.21147 -1.350666,3.95424 -2.549193,5.01342 -3.830201,3.38489 z m 27.688812,-2.10607 c -0.304,-0.304 -0.19215,-1.42222 0.15434,-1.54313 0.7515,-0.26222 23.87975,-3.313 24.19605,-3.19162 0.41375,0.15877 0.45784,1.10541 0.0628,1.34953 -0.33322,0.20594 -22.50298,3.5616 -23.53032,3.5616 -0.3886,0 -0.78591,-0.0794 -0.88292,-0.17638 z m -2.96381,-3.01365 c -0.0951,-0.15379 -0.0969,-0.54075 -0.004,-0.8599 0.20999,-0.72254 10.94692,-9.04694 11.66888,-9.04694 1.2754,0 0.26294,1.12563 -4.99176,5.54975 -5.15757,4.34235 -6.24373,5.05156 -6.67294,4.35709 z"
       id="path1" /></g></svg>
