<?xml version="1.0" encoding="UTF-8" standalone="no"?>
<svg width="800px" height="800px" viewBox="0 0 512 512" xmlns="http://www.w3.org/2000/svg">
  <path fill="#3399FF" d="M256 60c-40 0-72 32-72 72v48c0 26.5 21.5 48 48 48h48c26.5 0 48-21.5 48-48v-48c0-40-32-72-72-72zm-16 168h-80v32h80v192h32V260h80v-32h-80v-96c0-22.1 17.9-40 40-40s40 17.9 40 40v24h32v-24c0-40-32-72-72-72s-72 32-72 72v96zm-64 64H96v32h80v-32zm160 0v32h80v-32h-80zM96 356v32h80v-32H96zm240 0v32h80v-32h-80zM176 420v32h160v-32H176z"/>
</svg>