<?xml version="1.0" encoding="UTF-8" standalone="no"?>
<!-- Created with Inkscape (http://www.inkscape.org/) -->

<svg
   width="112.46275mm"
   height="105.32365mm"
   viewBox="0 0 112.46275 105.32365"
   version="1.1"
   id="svg1"
   xml:space="preserve"
   xmlns="http://www.w3.org/2000/svg"
   xmlns:svg="http://www.w3.org/2000/svg"><defs
     id="defs1" /><g
     id="layer1"
     transform="translate(-47.759156,-87.484365)"><path
       style="fill:#3399ff;fill-opacity:1"
       d="m 89.059711,192.57527 c -0.07893,-0.12772 0.777242,-1.39084 1.902615,-2.80693 l 2.046131,-2.57471 1.5875,-0.83035 1.5875,-0.83034 2.593044,-0.13304 2.593039,-0.13304 -2.196164,-0.96135 -2.196169,-0.96135 -3.326322,0.58589 c -3.712184,0.65385 -3.373507,0.51546 -6.020908,2.46033 l -1.938897,1.42438 -1.897562,0.36643 -1.897561,0.36642 -3.175,-0.93776 c -1.74625,-0.51577 -3.269609,-1.02708 -3.385242,-1.13624 l -0.210243,-0.19848 2.459201,-1.84221 c 3.125569,-2.3414 2.753769,-2.14956 5.016139,-2.58825 l 1.940979,-0.37637 2.615019,0.79707 2.61502,0.79706 2.257303,-0.41872 c 1.241517,-0.23029 2.296268,-0.45768 2.34389,-0.5053 0.04762,-0.0476 -0.704569,-0.41149 -1.671535,-0.80859 l -1.758121,-0.72201 -5.449746,-0.51253 c -2.997361,-0.28189 -5.957486,-0.51353 -6.578055,-0.51474 l -1.128308,-0.002 -2.21637,0.89371 -2.21637,0.89372 -1.997157,-0.19555 -1.997156,-0.19554 -2.920466,-1.81535 c -1.606255,-0.99844 -2.833836,-1.89783 -2.727957,-1.99864 0.10588,-0.10081 1.549164,-0.7262 3.207297,-1.38976 l 3.014789,-1.20646 1.957073,0.16543 1.957073,0.16543 2.454418,1.51177 2.454417,1.51177 1.834138,0.177 c 1.008775,0.0973 2.488981,0.24069 3.289345,0.31853 l 1.455209,0.14153 -1.909898,-1.06284 c -1.050444,-0.58456 -2.555314,-1.4757 -3.344156,-1.98031 l -1.434258,-0.91749 -5.058731,-1.85892 -5.058731,-1.85892 -2.75909,0.33511 -2.759091,0.3351 -1.970518,-0.8133 -1.970519,-0.81331 -2.147191,-2.30617 c -1.180956,-1.2684 -2.147192,-2.4144 -2.147192,-2.54667 v -0.24049 l 3.429515,-0.33966 3.429515,-0.33966 1.796006,0.66323 1.796005,0.66323 1.94011,2.00111 1.94011,2.00111 2.643783,0.94959 c 1.454081,0.52227 2.682074,0.94959 2.728874,0.94959 0.0468,0 -0.765796,-0.85591 -1.805768,-1.90201 l -1.890859,-1.90201 -4.981315,-3.52475 -4.981316,-3.52475 -2.631163,-0.39519 -2.631164,-0.3952 -1.620122,-1.17888 -1.620122,-1.17887 -1.565984,-2.94833 c -1.879512,-3.53862 -2.032889,-3.32284 1.959252,-2.75649 l 3.255268,0.46181 1.724592,1.18336 1.724592,1.18336 1.300905,2.50095 1.300906,2.50095 2.596898,1.8306 c 1.428294,1.00682 2.596898,1.77603 2.596898,1.70934 0,-0.0667 -0.472511,-0.89323 -1.050024,-1.83678 -0.577513,-0.94354 -1.401537,-2.40416 -1.831164,-3.2458 l -0.781141,-1.53027 -3.435365,-4.10105 -3.435365,-4.10104 -2.484875,-1.01948 -2.484876,-1.01948 -1.325334,-1.62635 -1.325333,-1.62635 -0.739491,-3.2586 c -0.89988,-3.96536 -1.134919,-3.7732 2.59436,-2.12106 l 3.098638,1.37275 1.298408,1.49877 1.298408,1.49878 0.627891,2.66273 0.62789,2.66274 1.795772,2.15302 c 2.169189,2.60072 2.128095,2.62246 1.229144,-0.65034 l -0.726181,-2.64379 -2.492384,-5.37849 -2.492384,-5.37849 -1.94545,-1.49009 -1.945449,-1.4901 -0.901389,-1.78991 -0.901389,-1.78992 0.01961,-2.45401 c 0.01079,-1.3497 0.100083,-2.9727 0.198437,-3.60667 l 0.178826,-1.15268 2.729336,2.15889 2.729337,2.15888 0.776392,1.73044 0.776393,1.73043 v 3.00915 3.00915 l 1.318453,2.85317 1.318453,2.85316 0.0042,-4.10104 0.0042,-4.10104 -0.878619,-5.04692 -0.878619,-5.04692 -1.610476,-2.11561 -1.610475,-2.1156 -0.383626,-2.05889 -0.383625,-2.05889 1.032973,-3.28015 c 1.233574,-3.91715 0.82648,-3.84481 3.294799,-0.58548 l 2.040697,2.69467 0.349117,2.00169 0.349116,2.00168 -0.798749,2.57454 -0.79875,2.57455 0.425645,2.45254 c 0.234105,1.34889 0.488179,2.63113 0.564609,2.84941 l 0.138964,0.39688 0.643814,-2.24896 0.643814,-2.24896 0.618538,-6.35 0.618538,-6.35 -0.931155,-2.33652 -0.931154,-2.33652 0.142596,-2.08043 0.142596,-2.08043 1.808043,-2.902403 c 0.994423,-1.59632 1.886386,-2.853982 1.982138,-2.794804 0.09575,0.05918 0.730784,1.49871 1.411181,3.198959 l 1.237086,3.091358 -0.187608,2.00373 -0.187609,2.00373 -1.515638,2.40609 -1.515638,2.4061 -0.182066,2.35641 c -0.100136,1.29602 -0.242505,2.77311 -0.316375,3.28244 l -0.134309,0.92604 0.9248,-1.67326 c 0.50864,-0.92029 1.402739,-2.40857 1.986885,-3.30729 l 1.062084,-1.63403 1.86252,-5.0844 1.86252,-5.08439 -0.302374,-2.769247 -0.302373,-2.769247 0.730515,-1.935944 0.730515,-1.935945 2.289988,-2.095298 c 1.259493,-1.152413 2.421067,-2.138991 2.581275,-2.192393 l 0.291288,-0.0971 0.391635,3.382457 0.391635,3.382457 -0.684961,1.875918 -0.684962,1.875917 -2.031834,1.961103 -2.031835,1.961102 -1.245695,3.43959 c -0.685132,1.89177 -1.309524,3.60908 -1.387537,3.81625 l -0.141842,0.37666 0.436671,-0.16757 c 0.240169,-0.0922 3.167639,-2.44906 6.505488,-5.23755 l 6.068816,-5.069987 0.959889,-2.289037 0.95989,-2.289037 1.57507,-1.27497 1.575071,-1.27497 3.240718,-0.749076 c 3.919752,-0.906032 3.68354,-1.198003 2.070508,2.559256 l -1.345185,3.133358 -1.544825,1.249833 -1.544825,1.249833 -2.325494,0.542235 -2.325494,0.542242 -6.247319,5.19098 c -6.917085,5.74751 -6.601732,5.43823 -8.667773,8.50077 -1.896281,2.81091 -2.04458,2.8002 3.466089,0.25036 l 4.711063,-2.17986 1.612463,-2.08438 1.612462,-2.08439 1.922988,-0.87633 1.922988,-0.87634 3.309638,0.15638 3.309638,0.15638 v 0.23911 c 0,0.13152 -0.902551,1.37282 -2.005669,2.75846 l -2.005668,2.51934 -1.878168,0.90009 -1.878167,0.90008 -2.664602,-0.15891 -2.664601,-0.15891 -5.55625,2.56166 c -3.055938,1.40892 -5.757798,2.79733 -6.004135,3.08537 -1.7908,2.09394 -4.326553,12.35216 -4.129439,16.70536 l 0.07941,1.75368 2.981074,-4.21295 2.981073,-4.21294 0.421236,-2.72312 0.421235,-2.72312 1.2279,-1.66199 1.227899,-1.66199 2.976562,-1.57318 2.976563,-1.57318 0.0015,0.59763 c 8.35e-4,0.3287 -0.196476,1.90732 -0.438471,3.50805 l -0.43999,2.91042 -1.159646,1.63598 -1.159647,1.63598 -2.436779,1.29804 -2.436778,1.29805 -3.650208,5.18438 -3.650208,5.18438 0.304566,2.33264 c 0.443739,3.39854 1.629403,7.75721 2.973664,10.93159 1.059425,2.50177 2.529918,5.36681 2.580174,5.02709 0.01076,-0.0728 0.240801,-2.44575 0.511194,-5.27332 l 0.491624,-5.14102 -0.998637,-2.53189 -0.998637,-2.5319 0.198658,-1.98798 0.198658,-1.98799 1.766335,-2.84066 c 2.156695,-3.46845 1.906653,-3.48957 3.407629,0.28793 l 1.243134,3.1286 -0.171673,1.96463 -0.171672,1.96464 -1.483248,2.3747 -1.483248,2.3747 -0.578026,6.22426 -0.578025,6.22426 0.968286,1.45521 c 0.532558,0.80036 2.457346,2.95094 4.277307,4.77906 l 3.30902,3.32386 2.709613,1.81584 c 3.398396,2.27742 3.356035,2.44637 0.782888,-3.12249 l -2.169585,-4.69547 -2.131403,-1.67611 -2.131403,-1.67611 -0.830378,-1.85711 -0.830379,-1.8571 0.157721,-3.33802 c 0.186599,-3.94919 -0.09061,-3.83848 3.165703,-1.26421 l 2.623262,2.07382 0.849359,1.89955 0.84936,1.89956 -0.169016,2.57907 -0.169016,2.57906 2.713144,5.85914 2.713144,5.85913 2.697255,1.07433 c 3.009849,1.19885 7.3733,2.34549 9.854831,2.58968 l 1.6351,0.16091 1.06608,-0.784 1.06607,-0.78401 -2.833466,-1.98759 c -1.558407,-1.09318 -2.967002,-2.06408 -3.13021,-2.15756 -0.163208,-0.0935 -1.453707,-0.34376 -2.867775,-0.55619 l -2.571033,-0.38623 -1.428499,-0.98384 c -1.839281,-1.26677 -1.873445,-1.31039 -3.657641,-4.67062 l -1.510236,-2.84427 0.34513,-0.002 c 0.189821,-0.001 1.714348,0.18783 3.387838,0.41967 l 3.042708,0.42153 1.791936,1.20007 1.791935,1.20007 1.250773,2.41125 1.250773,2.41125 3.042707,2.1793 c 1.67349,1.19862 3.2213,2.17931 3.43959,2.17931 0.21828,0 1.76609,-0.98069 3.43958,-2.17931 l 3.04271,-2.1793 1.25077,-2.41125 1.25077,-2.41125 1.79194,-1.20007 1.79193,-1.20007 3.13575,-0.43689 c 3.86312,-0.53822 3.76438,-0.66328 2.04581,2.59118 -1.68483,3.19057 -1.7364,3.25581 -3.57376,4.52125 l -1.4285,0.98384 -2.57103,0.38623 c -1.41407,0.21243 -2.70457,0.46272 -2.86777,0.55619 -0.16321,0.0935 -1.57181,1.06438 -3.13021,2.15756 l -2.83347,1.98759 1.06608,0.78401 1.06607,0.784 1.6351,-0.16091 c 2.48153,-0.24419 6.84498,-1.39083 9.85483,-2.58968 l 2.69726,-1.07433 2.71314,-5.85913 2.71314,-5.85914 -0.16901,-2.57906 -0.16902,-2.57907 0.84936,-1.89956 0.84936,-1.89955 2.62326,-2.07382 c 3.25876,-2.5762 2.9849,-2.68797 3.15662,1.28837 l 0.1452,3.36218 -0.81957,1.83294 -0.81958,1.83295 -2.1314,1.67611 -2.13141,1.67611 -2.16958,4.69547 c -2.57336,5.56932 -2.61552,5.40153 0.78289,3.11611 l 2.70961,-1.82221 3.31119,-3.31748 c 1.82115,-1.82462 3.74594,-3.97233 4.27731,-4.77269 l 0.96611,-1.45521 -0.57802,-6.22426 -0.57803,-6.22426 -1.48325,-2.3747 -1.48324,-2.3747 -0.17168,-1.96464 -0.17167,-1.96463 1.24314,-3.1286 c 1.50097,-3.7775 1.25093,-3.75638 3.40762,-0.28793 l 1.76634,2.84066 0.19866,1.98799 0.19866,1.98798 -0.99864,2.5319 -0.99864,2.53189 0.46951,5.08047 c 0.56303,6.09256 0.44282,5.91297 1.93331,2.88824 2.17435,-4.41251 3.7876,-9.87836 4.27605,-14.48771 l 0.15421,-1.4552 -3.63613,-5.13546 -3.63614,-5.13546 -2.43678,-1.29836 -2.43678,-1.29835 -1.15965,-1.63598 -1.15964,-1.63598 -0.43999,-2.91042 c -0.242,-1.60073 -0.43931,-3.17935 -0.43847,-3.50805 l 0.002,-0.59763 2.97656,1.56997 2.97656,1.56997 1.22456,1.6436 1.22455,1.64359 0.42524,2.74895 0.42523,2.74895 2.56465,3.63095 c 1.41056,1.99703 2.79787,3.92861 3.08291,4.29241 l 0.51826,0.66146 -0.15665,-3.06629 -0.15666,-3.06629 -0.57016,-2.75454 c -0.60501,-2.92285 -2.22995,-7.84386 -3.05798,-9.26087 l -0.49687,-0.8503 -5.68854,-2.63775 -5.68854,-2.63776 -2.6646,0.15909 -2.6646,0.15908 -1.87817,-0.90008 -1.87817,-0.90009 -2.00567,-2.51934 c -1.10311,-1.38564 -2.00566,-2.62666 -2.00566,-2.75783 v -0.23849 l 3.30496,-0.16751 3.30496,-0.1675 1.92056,0.87598 1.92056,0.87598 1.62383,2.09496 1.62383,2.09497 4.70541,2.18152 c 5.50325,2.55142 5.36105,2.56175 3.46322,-0.25147 -2.06616,-3.06271 -1.74995,-2.75264 -8.67742,-8.50881 l -6.25696,-5.19904 -2.35928,-0.550226 -2.35928,-0.550224 -1.4853,-1.233796 -1.4853,-1.233797 -1.36128,-3.133358 c -1.63334,-3.759572 -1.85213,-3.483249 2.04477,-2.582499 l 3.21402,0.742904 1.59324,1.289677 1.59324,1.289678 0.95315,2.272963 0.95314,2.272964 5.8516,4.876964 c 6.41978,5.35051 6.7965,5.64652 6.96792,5.47511 0.0645,-0.0645 -0.48711,-1.7733 -1.22581,-3.7973 l -1.34309,-3.68002 -2.03245,-1.981476 -2.03245,-1.981478 -0.68059,-1.854981 -0.68058,-1.854981 0.38812,-3.373438 c 0.4599,-3.997414 0.24781,-3.918221 3.18854,-1.190625 l 2.35337,2.182812 0.74145,1.956286 0.74145,1.956285 -0.30779,2.754359 -0.30779,2.754367 1.86052,5.07894 1.86052,5.07894 1.06208,1.63403 c 0.58415,0.89872 1.47825,2.387 1.98689,3.30729 l 0.9248,1.67326 -0.13431,-0.92604 c -0.0739,-0.50933 -0.21624,-1.98642 -0.31638,-3.28244 l -0.18206,-2.35641 -1.51564,-2.4061 -1.51564,-2.40609 -0.18761,-2.00373 -0.18761,-2.00373 1.23709,-3.091362 c 0.6804,-1.700249 1.31543,-3.13978 1.41118,-3.198959 0.0958,-0.05918 0.98772,1.198484 1.98214,2.794804 l 1.80804,2.902407 0.1426,2.08043 0.14259,2.08043 -0.92248,2.33652 -0.92248,2.33652 0.60723,6.35 0.60723,6.35 0.64645,2.24896 0.64645,2.24896 0.14216,-0.39688 c 0.0782,-0.21828 0.33483,-1.49464 0.57031,-2.83636 l 0.42814,-2.43949 -0.80654,-2.58023 -0.80653,-2.58022 0.27929,-1.59487 c 0.15362,-0.87718 0.34194,-1.80722 0.4185,-2.06675 0.21326,-0.7229 4.08001,-5.82069 4.27055,-5.63015 0.0922,0.0922 0.60591,1.59022 1.14156,3.3289 l 0.9739,3.16124 -0.3826,2.0263 -0.38261,2.0263 -1.61331,2.11933 -1.61331,2.11933 -0.88495,5.05303 -0.88495,5.05302 0.0676,4.03199 0.0676,4.03199 1.25677,-2.77532 1.25677,-2.77532 v -3.00601 -3.00602 l 0.79764,-1.75916 0.79765,-1.75917 2.70808,-2.14133 2.70809,-2.14134 0.18319,1.01964 c 0.10075,0.56079 0.19005,2.18346 0.19843,3.60592 l 0.0153,2.5863 -0.90848,1.804 -0.90848,1.80401 -1.94625,1.4907 -1.94624,1.4907 -2.47778,5.36379 -2.47778,5.3638 -0.7329,2.64379 c -0.90728,3.27287 -0.94723,3.25162 1.22243,0.65034 l 1.79577,-2.15302 0.62789,-2.66274 0.62789,-2.66273 1.29824,-1.49857 1.29823,-1.49857 3.10648,-1.36529 c 3.73542,-1.64171 3.48535,-1.846 2.58687,2.11319 l -0.73949,3.2586 -1.32534,1.62635 -1.32533,1.62635 -2.46985,1.01948 -2.46985,1.01948 -3.525,4.23334 c -1.93876,2.32833 -3.84469,4.86526 -4.23541,5.63763 -0.39071,0.77236 -1.18116,2.17344 -1.75655,3.11351 -0.57538,0.94007 -1.04615,1.76378 -1.04615,1.83046 0,0.0667 1.17876,-0.70967 2.61946,-1.72525 l 2.61946,-1.8465 1.19544,-2.3143 c 1.25422,-2.4281 1.67711,-2.92152 3.61981,-4.22347 l 1.19062,-0.79793 3.25527,-0.46237 c 3.99212,-0.56702 3.83878,-0.78272 1.95925,2.75594 l -1.56598,2.94833 -1.62013,1.17887 -1.62012,1.17888 -2.63305,0.39548 -2.63305,0.39548 -4.98128,3.52516 -4.98128,3.52517 -1.86031,1.90131 c -1.02317,1.04572 -1.80813,1.90131 -1.74435,1.90131 0.0638,0 1.28497,-0.43363 2.71377,-0.96362 l 2.59782,-0.96362 1.92651,-1.98708 1.92651,-1.98708 1.79601,-0.66323 1.79601,-0.66323 3.44231,0.34093 3.44231,0.34092 -0.0789,0.32924 c -0.0434,0.18108 -1.06534,1.36855 -2.27094,2.63882 l -2.19199,2.30958 -1.86846,0.71767 -1.86847,0.71766 -2.68642,-0.33746 -2.68642,-0.33745 -5.14352,1.87693 -5.14353,1.87694 -1.41324,0.90404 c -0.77728,0.49722 -2.2727,1.38231 -3.32314,1.96687 l -1.9099,1.06284 1.45521,-0.14153 c 0.80036,-0.0778 2.28865,-0.21998 3.30729,-0.31586 l 1.85208,-0.17433 2.42353,-1.51334 2.42352,-1.51335 1.97266,-0.16675 1.97266,-0.16675 2.35069,0.94582 c 1.29288,0.5202 2.7646,1.11783 3.27049,1.32807 l 0.9198,0.38224 -2.42851,1.55989 c -3.38252,2.17269 -3.40105,2.18063 -5.58435,2.3944 l -1.95405,0.19133 -2.21637,-0.89372 -2.21637,-0.89371 -1.1283,0.002 c -0.62057,0.001 -3.59874,0.23454 -6.61816,0.51849 l -5.48985,0.51629 -1.75882,0.77488 -1.75881,0.77488 0.76637,0.15184 c 0.42151,0.0835 1.49821,0.28846 2.39267,0.45545 l 1.62629,0.30362 2.60704,-0.80723 2.60704,-0.80722 1.92379,0.36913 c 2.23982,0.42976 1.89586,0.25194 5.03333,2.60225 l 2.4592,1.84221 -0.21024,0.19518 c -0.11564,0.10734 -1.60816,0.61909 -3.31673,1.13721 l -3.10648,0.94205 -2.00579,-0.38378 -2.00579,-0.38377 -1.50231,-1.14862 c -0.82627,-0.63174 -1.83411,-1.36304 -2.23964,-1.62511 l -0.73733,-0.47649 -3.36371,-0.60482 -3.36372,-0.60483 -2.24895,1.03484 -2.24896,1.03484 2.41769,0.004 2.41769,0.004 1.74237,0.81536 1.74238,0.81536 2.12078,2.65435 c 1.16644,1.45989 2.05558,2.75986 1.97589,2.88881 l -0.14491,0.23446 h -3.38737 -3.38737 l -1.73044,-0.78462 -1.73043,-0.78462 -1.6796,-2.13341 -1.6796,-2.13342 -0.59531,-0.15336 c -0.32742,-0.0843 -0.8632,-0.0843 -1.19063,0 l -0.59531,0.15336 -1.69624,2.15446 -1.696241,2.15446 -1.701861,0.76357 -1.701861,0.76358 h -3.399304 -3.399305 z m 16.964819,-8.69642 2.06518,-0.99113 -2.05052,-0.0783 c -1.12779,-0.0431 -2.97326,-0.0436 -4.10105,-10e-4 l -2.050516,0.0773 1.984376,0.97044 c 1.09141,0.53375 2.00754,0.98023 2.03586,0.99219 0.0283,0.012 0.98082,-0.42426 2.11667,-0.96939 z m -1.44783,-4.44782 -0.58803,-0.41188 -0.58804,0.41188 -0.58804,0.41187 h 1.17608 1.17607 z"
       id="path1" /></g></svg>
