<?xml version="1.0" encoding="UTF-8" standalone="no"?>
<!-- Uploaded to: SVG Repo, www.svgrepo.com, Generator: SVG Repo Mixer Tools -->

<svg
   width="643.7207"
   height="861.76947"
   viewBox="0 0 411.98125 551.53246"
   version="1.1"
   id="svg1"
   xmlns="http://www.w3.org/2000/svg"
   xmlns:svg="http://www.w3.org/2000/svg">
  <defs
     id="defs1" />
  <path
     id="path1"
     d="m 205.63125,80.532501 c -45.49995,0 -74.13727,18.276026 -92.67625,44.229999 -18.539982,25.95498 -26.323752,60.27003 -26.323752,90.77 v 151 H 324.63125 v -151 c 0,-30.49997 -7.78477,-64.81502 -26.32375,-90.77 C 279.76752,98.808527 251.1312,80.532501 205.63125,80.532501 Z m 8.75625,11.885 c 1.285,0 2.55325,0.0185 3.81125,0.0475 A 184,235.5 0 0 0 95.541248,220.36875 c 1.113,-28.64497 9.045022,-59.74602 26.170002,-83.72 18.53998,-25.95497 47.1763,-44.229999 92.67625,-44.229999 z M 138.98,244.88 h 3.19625 l 3.22,0.002 104.46,0.0825 0.02,11.2825 -100.4525,44.8575 v 52.17125 c 0,2.24515 -1.80735,4.0525 -4.0525,4.0525 H 138.98 c -2.24515,0 -4.0525,-1.80735 -4.0525,-4.0525 V 248.9325 c 0,-2.24515 1.80735,-4.0525 4.0525,-4.0525 z m 129.95875,11.47625 h 7.21875 c 2.01601,0 3.63875,1.62274 3.63875,3.63875 v 93.695 c 0,2.016 -1.62274,3.63875 -3.63875,3.63875 h -7.21875 c -2.01601,0 -3.63875,-1.62275 -3.63875,-3.63875 v -65.605 h -52.36125 c -2.35933,-10e-4 -3.09013,-3.19383 -0.96625,-4.22125 l 54.145,-26.145 z M 54.631248,384.5325 v 46 H 356.63125 v -46 z m 78.000002,64 v 39 h -7 v 32 h 7 v 32 h 18 v -32 h 7 v -32 h -7 v -39 z m 128,0 v 39 h -7 v 32 h 7 v 32 h 18 v -32 h 7 v -32 h -7 v -39 z"
     style="fill:#3399ff;fill-opacity:1" />
  <path
     id="rect1"
     style="fill:#3399ff;fill-opacity:1;stroke-width:8.05558;stroke-linecap:square"
     d="m 194.69,1.2207031e-6 c -1.15003,0 -2.07625,0.9262179992969 -2.07625,2.0762499792969 V 55.523751 c 0,1.150032 0.92622,2.07625 2.07625,2.07625 h 21.8825 c 1.15003,0 2.07625,-0.926218 2.07625,-2.07625 V 2.0762512 C 218.64875,0.92621922 217.72253,1.2207031e-6 216.5725,1.2207031e-6 Z M 58.846248,54.401251 c -0.53063,0 -1.0609,0.203402 -1.4675,0.61 l -15.47375,15.4725 c -0.813196,0.813196 -0.813196,2.123054 0,2.93625 l 37.79375,37.793749 c 0.8132,0.8132 2.12305,0.8132 2.93625,0 l 15.4725,-15.473749 c 0.8132,-0.813196 0.8132,-2.121804 0,-2.935 l -37.79375,-37.79375 c -0.4066,-0.406598 -0.93687,-0.61 -1.4675,-0.61 z m 288.401252,0 c -0.53063,0 -1.0609,0.203402 -1.4675,0.61 l -37.79375,37.79375 c -0.8132,0.813196 -0.8132,2.121804 0,2.935 l 15.4725,15.473749 c 0.8132,0.8132 2.12305,0.8132 2.93625,0 l 37.79375,-37.793749 c 0.8132,-0.813196 0.8132,-2.123054 0,-2.93625 L 348.715,55.011251 c -0.4066,-0.406598 -0.93687,-0.61 -1.4675,-0.61 z M 2.0749985,189.0075 c -1.15003203,0 -2.0750000258789,0.92497 -2.0750000258789,2.075 v 21.8825 c 0,1.15003 0.9249679958789,2.07625 2.0750000258789,2.07625 H 55.523748 c 1.15003,0 2.07625,-0.92622 2.07625,-2.07625 v -21.8825 c 0,-1.15003 -0.92622,-2.075 -2.07625,-2.075 z m 354.3812515,0 c -1.15003,0 -2.075,0.92497 -2.075,2.075 v 21.8825 c 0,1.15003 0.92497,2.07625 2.075,2.07625 H 409.905 c 1.15003,0 2.07625,-0.92622 2.07625,-2.07625 v -21.8825 c 0,-1.15003 -0.92622,-2.075 -2.07625,-2.075 z" />
  <path
     d="m 142.17625,244.88 3.22,0.002 c -0.009,-5e-5 -0.0164,-0.002 -0.025,-0.002 z"
     style="fill:#fdfdff;stroke-width:12.409;stroke-linecap:square"
     id="path17" />
</svg>
