<?xml version="1.0" encoding="UTF-8" standalone="no"?>
<svg
   viewBox="0 0 699.99942 181.33618"
   version="1.1"
   id="svg1"
   width="699.99939"
   height="181.33618"
   xmlns="http://www.w3.org/2000/svg"
   xmlns:svg="http://www.w3.org/2000/svg">
  <defs
     id="defs1" />
  <g
     id="g79"
     transform="translate(1936.1618,-3300.8481)">
    <path
       id="vero-0"
       style="fill:#3399ff;fill-opacity:1;stroke:none;stroke-width:1"
       d="m -1388.5915,3306.1433 c -11.7127,0.1041 -24.5262,12.7194 -24.5954,27.2818 l 0.2934,124.3541 c -0.2934,14.7827 13.441,23.5115 25.8853,23.428 l 124.1639,0.064 c 13.9666,0.018 26.7422,-12.4306 26.6657,-26.1336 l 0.016,-122.1194 c 0.056,-15.8678 -13.1478,-26.7418 -24.5664,-26.8754 h -63.9313 z m 128.1884,20.8515 c -46.3651,38.0526 -129.4758,106.6098 -131.6228,108.3915 v -101.6258 c 0.015,-3.242 2.0866,-6.3587 5.9981,-6.4819 z m 3.6182,24.0569 0.01,101.6352 c 0.033,4.4662 -2.636,7.7159 -7.1268,7.7334 l -125.5892,0.287 c 7.101,-5.4478 130.9186,-108.1685 132.7061,-109.6556 z" />
    <path
       id="vero-text"
       style="fill:#000000;fill-opacity:1;stroke:none;stroke-width:19.3891;stroke-linecap:square;stroke-opacity:1"
       d="m -1936.1619,3300.8481 105.8728,181.2672 29.3281,0.069 104.617,-181.3358 h -40.9054 l -78.6024,138.7575 -81.4626,-138.6888 z m 259.6197,39.1104 c -13.7344,0 -27.4688,13.4722 -27.4686,26.9462 l -0.3032,83.6348 c 0,15.8858 13.8127,30.6421 28.8295,30.6934 l 114.9153,0.058 v -32.7541 l -110.1586,-0.2677 c -0.098,-6.9568 -0.1924,-13.9137 -0.287,-20.8707 h 110.4456 v -58.9523 c 0,-14.2484 -13.6037,-28.497 -27.2075,-28.4878 z m 5.55,33.0153 77.4012,0.2708 c 0.098,6.9557 0.1924,13.9116 0.287,20.8675 h -77.6884 z m 128.9162,-4.1693 c 0,-14.5677 15.4542,-29.1355 30.9084,-29.1353 l 81.3657,0.2883 v 32.7576 l -79.5165,0.2708 v 108.3048 h -32.7576 z" />
  </g>
</svg>
