<?xml version="1.0" encoding="UTF-8" standalone="no"?>
<!-- Created with Inkscape (http://www.inkscape.org/) -->

<svg
   version="1.1"
   id="svg1"
   width="624.23163"
   height="230.81287"
   viewBox="0 0 624.23163 230.81287"
   sodipodi:docname="zeroth_structure.svg"
   inkscape:version="1.3.2 (091e20e, 2023-11-25)"
   xmlns:inkscape="http://www.inkscape.org/namespaces/inkscape"
   xmlns:sodipodi="http://sodipodi.sourceforge.net/DTD/sodipodi-0.dtd"
   xmlns="http://www.w3.org/2000/svg"
   xmlns:svg="http://www.w3.org/2000/svg">
  <defs
     id="defs1" />
  <sodipodi:namedview
     id="namedview1"
     pagecolor="#272727"
     bordercolor="#000000"
     borderopacity="0.25"
     inkscape:showpageshadow="2"
     inkscape:pageopacity="0.0"
     inkscape:pagecheckerboard="0"
     inkscape:deskcolor="#d1d1d1"
     showgrid="false"
     inkscape:zoom="0.85766768"
     inkscape:cx="304.89665"
     inkscape:cy="-25.067984"
     inkscape:window-width="1440"
     inkscape:window-height="794"
     inkscape:window-x="0"
     inkscape:window-y="34"
     inkscape:window-maximized="0"
     inkscape:current-layer="g1" />
  <g
     inkscape:groupmode="layer"
     inkscape:label="Image"
     id="g1"
     transform="translate(-116.90706,-27.422396)">
    <path
       id="rect3"
       style="fill:#3399ff;fill-opacity:1;stroke-width:6.85504"
       d="m 206.29889,145.76291 h 10.41922 v 43.22594 H 206.29889 Z M 134.62269,27.422396 h 153.77162 c 9.81445,0 17.71562,7.90117 17.71562,17.71562 V 128.0473 c 0,9.81445 -7.90117,17.71562 -17.71562,17.71562 H 134.62269 c -9.81446,0 -17.71563,-7.90117 -17.71563,-17.71562 V 45.138016 c 0,-9.81445 7.90117,-17.71562 17.71563,-17.71562 z m 76.88581,188.128244 -7.66773,-13.2809 -7.66772,-13.28089 h 15.33545 15.33545 l -7.66773,13.28089 z" />
    <g
       id="text3"
       style="font-size:26.6667px;font-family:Orbitron;-inkscape-font-specification:Orbitron;text-align:center;text-anchor:middle;fill:#ffffff;stroke-width:3.36574"
       aria-label="Research &amp;&#10;Education">
      <path
         style="font-family:Poppins;-inkscape-font-specification:Poppins"
         d="m 146.82741,77.050476 -4.42668,-7.60001 h -2.93333 v 7.60001 h -2.42667 v -18.58669 h 6.00001 q 2.10667,0 3.54667,0.720001 1.46667,0.720001 2.18667,1.946669 0.72,1.226668 0.72,2.800003 0,1.920003 -1.12,3.386671 -1.09334,1.466669 -3.30668,1.94667 l 4.66668,7.786676 z m -7.36001,-9.546679 h 3.57334 q 1.97333,0 2.96,-0.960001 0.98667,-0.986668 0.98667,-2.613337 0,-1.653335 -0.98667,-2.560003 -0.96,-0.906668 -2.96,-0.906668 h -3.57334 z m 27.12003,1.680002 q 0,0.693335 -0.08,1.466669 h -11.68002 q 0.13334,2.160003 1.46667,3.386671 1.36,1.200001 3.28,1.200001 1.57334,0 2.61334,-0.72 1.06667,-0.746668 1.49334,-1.973336 h 2.61333 q -0.58666,2.106669 -2.34667,3.440004 -1.76,1.306668 -4.37334,1.306668 -2.08,0 -3.73333,-0.933334 -1.62667,-0.933335 -2.56001,-2.640003 -0.93333,-1.733336 -0.93333,-4.000006 0,-2.266669 0.90667,-3.973338 0.90666,-1.706669 2.53333,-2.613337 1.65334,-0.933334 3.78667,-0.933334 2.08001,0 3.68001,0.906668 1.6,0.906668 2.45334,2.50667 0.88,1.573335 0.88,3.573337 z m -2.50667,-0.506667 q 0,-1.386668 -0.61334,-2.373336 -0.61333,-1.013335 -1.68,-1.520002 -1.04,-0.533334 -2.32,-0.533334 -1.84,0 -3.14667,1.173335 -1.28,1.173335 -1.46667,3.253337 z m 10.88004,8.613344 q -1.68001,0 -3.01334,-0.56 -1.33334,-0.586668 -2.10667,-1.600002 -0.77334,-1.040002 -0.85334,-2.373337 h 2.50667 q 0.10667,1.093335 1.01334,1.786669 0.93333,0.693334 2.42667,0.693334 1.38667,0 2.18667,-0.613334 0.8,-0.613334 0.8,-1.546668 0,-0.960001 -0.85334,-1.413335 -0.85333,-0.480001 -2.64,-0.933335 -1.62667,-0.426667 -2.66667,-0.853334 -1.01333,-0.453334 -1.76,-1.306669 -0.72,-0.880001 -0.72,-2.293336 0,-1.120001 0.66667,-2.053336 0.66666,-0.933334 1.89333,-1.466668 1.22667,-0.560001 2.8,-0.560001 2.42667,0 3.92001,1.226668 1.49333,1.226668 1.6,3.360004 h -2.42667 q -0.08,-1.146668 -0.93333,-1.840002 -0.82667,-0.693334 -2.24001,-0.693334 -1.30666,0 -2.08,0.560001 -0.77333,0.56 -0.77333,1.466668 0,0.720001 0.45333,1.200002 0.48,0.453334 1.17334,0.746667 0.72,0.266667 1.97333,0.613334 1.57334,0.426668 2.56001,0.853335 0.98666,0.4 1.68,1.226668 0.72,0.826668 0.74667,2.160003 0,1.200001 -0.66667,2.160002 -0.66667,0.960002 -1.89334,1.520002 -1.2,0.533334 -2.77333,0.533334 z m 22.08,-8.106677 q 0,0.693335 -0.08,1.466669 h -11.68001 q 0.13333,2.160003 1.46667,3.386671 1.36,1.200001 3.28,1.200001 1.57334,0 2.61334,-0.72 1.06667,-0.746668 1.49333,-1.973336 h 2.61334 q -0.58667,2.106669 -2.34667,3.440004 -1.76,1.306668 -4.37334,1.306668 -2.08,0 -3.73334,-0.933334 -1.62667,-0.933335 -2.56,-2.640003 -0.93333,-1.733336 -0.93333,-4.000006 0,-2.266669 0.90666,-3.973338 0.90667,-1.706669 2.53334,-2.613337 1.65334,-0.933334 3.78667,-0.933334 2.08,0 3.68001,0.906668 1.6,0.906668 2.45333,2.50667 0.88,1.573335 0.88,3.573337 z m -2.50667,-0.506667 q 0,-1.386668 -0.61333,-2.373336 -0.61333,-1.013335 -1.68,-1.520002 -1.04,-0.533334 -2.32001,-0.533334 -1.84,0 -3.14667,1.173335 -1.28,1.173335 -1.46666,3.253337 z m 4.80003,1.013335 q 0,-2.240003 0.90667,-3.920005 0.90667,-1.706669 2.48001,-2.640004 1.6,-0.933334 3.54667,-0.933334 1.92,0 3.33333,0.826668 1.41334,0.826667 2.10667,2.080002 v -2.66667 h 2.45334 v 14.613352 h -2.45334 v -2.720003 q -0.72,1.280001 -2.16,2.133336 -1.41333,0.826667 -3.30667,0.826667 -1.94667,0 -3.52,-0.960001 -1.57334,-0.960001 -2.48001,-2.693337 -0.90667,-1.733335 -0.90667,-3.946671 z m 12.37335,0.02667 q 0,-1.653335 -0.66666,-2.880003 -0.66667,-1.226668 -1.81334,-1.866669 -1.12,-0.666668 -2.48,-0.666668 -1.36,0 -2.48001,0.640001 -1.12,0.640001 -1.78667,1.866669 -0.66666,1.226668 -0.66666,2.880004 0,1.680002 0.66666,2.933337 0.66667,1.226668 1.78667,1.893336 1.12001,0.64 2.48001,0.64 1.36,0 2.48,-0.64 1.14667,-0.666668 1.81334,-1.893336 0.66666,-1.253335 0.66666,-2.906671 z m 8.98669,-4.906672 q 0.64001,-1.253335 1.81334,-1.94667 1.2,-0.693334 2.90667,-0.693334 v 2.50667 h -0.64 q -4.08001,0 -4.08001,4.426672 v 7.946677 h -2.42667 V 62.437124 h 2.42667 z m 6.61332,4.906672 q 0,-2.266669 0.90667,-3.946671 0.90667,-1.706669 2.50667,-2.640004 1.62667,-0.933334 3.70667,-0.933334 2.69334,0 4.42667,1.306668 1.76001,1.306669 2.32001,3.626672 h -2.61334 q -0.37333,-1.333335 -1.46667,-2.10667 -1.06667,-0.773334 -2.66667,-0.773334 -2.08,0 -3.36,1.440002 -1.28,1.413335 -1.28,4.026671 0,2.640004 1.28,4.080006 1.28,1.440001 3.36,1.440001 1.6,0 2.66667,-0.746667 1.06667,-0.746668 1.46667,-2.133336 h 2.61334 q -0.58667,2.240003 -2.34667,3.600004 -1.76001,1.333335 -4.40001,1.333335 -2.08,0 -3.70667,-0.933334 -1.6,-0.933335 -2.50667,-2.640003 -0.90667,-1.706669 -0.90667,-4.000006 z m 24.34671,-7.546676 q 1.65334,0 2.98667,0.720001 1.33334,0.693334 2.08,2.10667 0.77334,1.413335 0.77334,3.440004 v 8.613344 h -2.4 v -8.266677 q 0,-2.186669 -1.09334,-3.333338 -1.09333,-1.173334 -2.98667,-1.173334 -1.92,0 -3.06667,1.200001 -1.12,1.200002 -1.12,3.493338 v 8.08001 h -2.42667 V 57.317118 h 2.42667 v 7.200009 q 0.72,-1.120002 1.97333,-1.733336 1.28001,-0.613334 2.85334,-0.613334 z m 31.20003,14.880019 -2.42667,-2.453336 q -1.36,1.413335 -2.90667,2.106669 -1.54667,0.666667 -3.49334,0.666667 -1.92,0 -3.41334,-0.693334 -1.46667,-0.693334 -2.29333,-1.973336 -0.80001,-1.280001 -0.80001,-2.98667 0,-1.946669 1.09334,-3.413338 1.12,-1.493335 3.28,-2.346669 -0.85333,-1.013335 -1.22666,-1.866669 -0.37334,-0.853335 -0.37334,-1.866669 0,-1.173335 0.58667,-2.10667 0.61333,-0.960001 1.73333,-1.493335 1.12001,-0.533334 2.58667,-0.533334 1.44001,0 2.50667,0.560001 1.06667,0.560001 1.60001,1.573335 0.53333,0.986668 0.48,2.213336 h -2.42667 q 0.0267,-1.093334 -0.61334,-1.706669 -0.64,-0.64 -1.65333,-0.64 -1.06667,0 -1.73334,0.613334 -0.64,0.586667 -0.64,1.520002 0,0.800001 0.42667,1.546668 0.45333,0.746668 1.49333,1.840003 l 5.54668,5.57334 0.48,-0.746668 1.81333,-3.040003 h 2.61334 l -2.18667,3.786671 q -0.45333,0.800001 -1.06667,1.680002 l 4.18667,4.186672 z m -8.82668,-1.760002 q 1.44,0 2.58667,-0.560001 1.17333,-0.560001 2.21334,-1.733335 l -5.46668,-5.493341 q -3.41334,1.306669 -3.41334,4.133339 0,1.573335 1.12001,2.613337 1.14666,1.040001 2.96,1.040001 z"
         id="path14" />
      <path
         style="font-family:Poppins;-inkscape-font-specification:Poppins"
         d="m 148.40074,95.269702 v 6.213338 h 6.77335 v 2.00001 h -6.77335 v 6.4 h 7.57335 v 2.00001 H 145.97407 V 93.269699 h 10.00002 v 2.000003 z m 10.3467,9.253348 q 0,-2.24001 0.90666,-3.92001 0.90667,-1.706667 2.48001,-2.640002 1.6,-0.933334 3.57333,-0.933334 1.70667,0 3.17334,0.800001 1.46667,0.773334 2.24,2.053336 v -7.733343 h 2.45334 v 19.733362 h -2.45334 v -2.74667 q -0.72,1.30666 -2.13333,2.16 -1.41334,0.82667 -3.30667,0.82667 -1.94667,0 -3.54667,-0.96 -1.57334,-0.96001 -2.48001,-2.69334 -0.90666,-1.73334 -0.90666,-3.94667 z m 12.37334,0.0267 q 0,-1.65333 -0.66666,-2.88 -0.66667,-1.22667 -1.81334,-1.866669 -1.12,-0.666668 -2.48,-0.666668 -1.36,0 -2.48,0.640001 -1.12001,0.639996 -1.78667,1.866666 -0.66667,1.22667 -0.66667,2.88001 0,1.68 0.66667,2.93333 0.66666,1.22667 1.78667,1.89334 1.12,0.64 2.48,0.64 1.36,0 2.48,-0.64 1.14667,-0.66667 1.81334,-1.89334 0.66666,-1.25333 0.66666,-2.90667 z m 19.52004,-7.280006 v 14.613356 h -2.42667 v -2.16001 q -0.69333,1.12 -1.94666,1.76001 -1.22667,0.61333 -2.72001,0.61333 -1.70667,0 -3.06667,-0.69333 -1.36,-0.72001 -2.16,-2.13334 -0.77334,-1.41334 -0.77334,-3.44001 v -8.560006 h 2.40001 v 8.240006 q 0,2.16001 1.09333,3.33334 1.09334,1.14667 2.98667,1.14667 1.94667,0 3.06667,-1.2 1.12,-1.2 1.12,-3.49334 v -8.026676 z m 3.19999,7.280006 q 0,-2.26667 0.90667,-3.94667 0.90667,-1.706667 2.50667,-2.640002 1.62667,-0.933334 3.70667,-0.933334 2.69334,0 4.42667,1.306668 1.76001,1.306669 2.32001,3.626668 h -2.61334 q -0.37333,-1.33333 -1.46667,-2.106666 -1.06667,-0.773334 -2.66667,-0.773334 -2.08,0 -3.36,1.44 -1.28,1.41334 -1.28,4.02667 0,2.64001 1.28,4.08001 1.28,1.44 3.36,1.44 1.6,0 2.66667,-0.74667 1.06667,-0.74666 1.46667,-2.13333 h 2.61334 q -0.58667,2.24 -2.34667,3.6 -1.76,1.33334 -4.40001,1.33334 -2.08,0 -3.70667,-0.93334 -1.6,-0.93333 -2.50667,-2.64 -0.90667,-1.70667 -0.90667,-4.00001 z m 16.1867,-0.0267 q 0,-2.24001 0.90667,-3.92001 0.90667,-1.706667 2.48,-2.640002 1.6,-0.933334 3.54667,-0.933334 1.92001,0 3.33334,0.826668 1.41334,0.826667 2.10667,2.080002 v -2.66667 h 2.45334 v 14.613356 h -2.45334 v -2.72001 q -0.72,1.28 -2.16,2.13334 -1.41334,0.82667 -3.30667,0.82667 -1.94667,0 -3.52001,-0.96 -1.57333,-0.96001 -2.48,-2.69334 -0.90667,-1.73334 -0.90667,-3.94667 z m 12.37335,0.0267 q 0,-1.65333 -0.66667,-2.88 -0.66666,-1.22667 -1.81333,-1.866669 -1.12,-0.666668 -2.48001,-0.666668 -1.36,0 -2.48,0.640001 -1.12,0.639996 -1.78667,1.866666 -0.66666,1.22667 -0.66666,2.88001 0,1.68 0.66666,2.93333 0.66667,1.22667 1.78667,1.89334 1.12,0.64 2.48,0.64 1.36001,0 2.48001,-0.64 1.14667,-0.66667 1.81333,-1.89334 0.66667,-1.25333 0.66667,-2.90667 z m 9.52003,-5.280003 v 8.613343 q 0,1.06667 0.45333,1.52 0.45333,0.42667 1.57334,0.42667 h 1.78666 v 2.05334 h -2.18666 q -2.02667,0 -3.04001,-0.93334 -1.01333,-0.93333 -1.01333,-3.06667 v -8.613343 h -1.89334 v -2.000003 h 1.89334 V 93.5897 h 2.42667 v 3.680004 h 3.81333 v 2.000003 z m 8.00002,-4.373339 q -0.69334,0 -1.17334,-0.480001 -0.48,-0.48 -0.48,-1.173335 0,-0.693334 0.48,-1.173334 0.48,-0.480001 1.17334,-0.480001 0.66666,0 1.12,0.480001 0.48,0.48 0.48,1.173334 0,0.693335 -0.48,1.173335 -0.45334,0.480001 -1.12,0.480001 z m 1.17333,2.373336 v 14.613356 h -2.42667 V 97.269704 Z m 10.50668,14.853356 q -2.05333,0 -3.73333,-0.93334 -1.65334,-0.93333 -2.61334,-2.64 -0.93333,-1.73334 -0.93333,-4.00001 0,-2.24 0.96,-3.94667 0.98666,-1.733334 2.66667,-2.640002 1.68,-0.933334 3.76,-0.933334 2.08,0 3.76001,0.933334 1.68,0.906668 2.64,2.613342 0.98667,1.70666 0.98667,3.97333 0,2.26667 -1.01334,4.00001 -0.98667,1.70667 -2.69333,2.64 -1.70667,0.93334 -3.78668,0.93334 z m 0,-2.13334 q 1.30667,0 2.45334,-0.61333 1.14667,-0.61334 1.84,-1.84001 0.72,-1.22666 0.72,-2.98667 0,-1.76 -0.69333,-2.98667 -0.69333,-1.22667 -1.81334,-1.813333 -1.12,-0.613334 -2.42667,-0.613334 -1.33333,0 -2.45333,0.613334 -1.09334,0.586663 -1.76,1.813333 -0.66667,1.22667 -0.66667,2.98667 0,1.78667 0.64,3.01334 0.66667,1.22667 1.76,1.84 1.09334,0.58667 2.4,0.58667 z m 17.81335,-12.986683 q 2.66667,0 4.32,1.626669 1.65334,1.600004 1.65334,4.640004 v 8.61335 h -2.40001 v -8.26668 q 0,-2.18667 -1.09333,-3.33334 -1.09334,-1.173333 -2.98667,-1.173333 -1.92,0 -3.06667,1.200003 -1.12,1.2 -1.12,3.49334 v 8.08001 h -2.42667 V 97.269704 h 2.42667 v 2.080003 q 0.72,-1.120002 1.94667,-1.733336 1.25333,-0.613334 2.74667,-0.613334 z"
         id="path15" />
    </g>
    <path
       id="rect3-2"
       style="fill:#3399ff;fill-opacity:1;stroke-width:6.85504"
       d="m 423.81326,145.76291 h 10.41922 v 43.22594 H 423.81326 Z M 352.13706,27.422396 h 153.77162 c 9.81445,0 17.71562,7.90117 17.71562,17.71562 V 128.0473 c 0,9.81445 -7.90117,17.71562 -17.71562,17.71562 H 352.13706 c -9.81446,0 -17.71563,-7.90117 -17.71563,-17.71562 V 45.138016 c 0,-9.81445 7.90117,-17.71562 17.71563,-17.71562 z m 76.88581,188.128244 -7.66773,-13.28089 -7.66772,-13.2809 h 15.33545 15.33545 l -7.66773,13.2809 z" />
    <g
       id="text3-4"
       style="font-size:26.6667px;font-family:Orbitron;-inkscape-font-specification:Orbitron;text-align:center;text-anchor:middle;fill:#ffffff;stroke-width:3.36574"
       aria-label="Technology&#10;Strategy&#10;Consulting">
      <path
         style="font-family:Poppins;-inkscape-font-specification:Poppins"
         d="m 365.40834,41.403666 v 1.973336 h -5.06667 V 59.990356 H 357.915 V 43.377002 h -5.09334 v -1.973336 z m 16.32003,10.720014 q 0,0.693334 -0.08,1.466668 h -11.68001 q 0.13333,2.160003 1.46667,3.386671 1.36,1.200002 3.28,1.200002 1.57334,0 2.61334,-0.720001 1.06667,-0.746668 1.49333,-1.973336 h 2.61334 q -0.58667,2.106669 -2.34667,3.440004 -1.76,1.306669 -4.37334,1.306669 -2.08,0 -3.73334,-0.933335 -1.62667,-0.933334 -2.56,-2.640003 -0.93334,-1.733336 -0.93334,-4.000005 0,-2.26667 0.90667,-3.973339 0.90667,-1.706668 2.53334,-2.613336 1.65333,-0.933335 3.78667,-0.933335 2.08,0 3.68001,0.906668 1.6,0.906668 2.45333,2.50667 0.88,1.573335 0.88,3.573338 z m -2.50667,-0.506667 q 0,-1.386669 -0.61333,-2.373337 -0.61334,-1.013334 -1.68,-1.520002 -1.04,-0.533334 -2.32001,-0.533334 -1.84,0 -3.14667,1.173335 -1.28,1.173335 -1.46667,3.253338 z m 4.80003,1.040001 q 0,-2.26667 0.90667,-3.946672 0.90667,-1.706669 2.50667,-2.640003 1.62667,-0.933335 3.70667,-0.933335 2.69334,0 4.42667,1.306669 1.76001,1.306668 2.32001,3.626671 h -2.61334 q -0.37333,-1.333335 -1.46667,-2.106669 -1.06667,-0.773335 -2.66667,-0.773335 -2.08,0 -3.36,1.440002 -1.28001,1.413335 -1.28001,4.026672 0,2.640003 1.28001,4.080005 1.28,1.440002 3.36,1.440002 1.6,0 2.66667,-0.746668 1.06667,-0.746667 1.46667,-2.133336 h 2.61334 q -0.58667,2.240003 -2.34667,3.600005 -1.76001,1.333335 -4.40001,1.333335 -2.08,0 -3.70667,-0.933335 -1.6,-0.933334 -2.50667,-2.640003 -0.90667,-1.706669 -0.90667,-4.000005 z m 24.34671,-7.546676 q 1.65333,0 2.98667,0.720001 1.33333,0.693334 2.08,2.106669 0.77333,1.413335 0.77333,3.440004 v 8.613344 h -2.4 v -8.266677 q 0,-2.186669 -1.09333,-3.333337 -1.09334,-1.173335 -2.98667,-1.173335 -1.92001,0 -3.06667,1.200001 -1.12001,1.200002 -1.12001,3.493338 v 8.08001 h -2.42667 V 40.256998 h 2.42667 v 7.200009 q 0.72001,-1.120001 1.97334,-1.733335 1.28,-0.613334 2.85334,-0.613334 z m 16.93334,0 q 2.66667,0 4.32,1.626668 1.65334,1.600002 1.65334,4.640006 v 8.613344 h -2.40001 v -8.266677 q 0,-2.186669 -1.09333,-3.333337 -1.09333,-1.173335 -2.98667,-1.173335 -1.92,0 -3.06667,1.200001 -1.12,1.200002 -1.12,3.493338 v 8.08001 h -2.42667 V 45.377005 h 2.42667 v 2.080002 q 0.72,-1.120001 1.94667,-1.733335 1.25333,-0.613334 2.74667,-0.613334 z m 16.32,15.120019 q -2.05333,0 -3.73334,-0.933335 -1.65333,-0.933334 -2.61333,-2.640003 -0.93334,-1.733336 -0.93334,-4.000005 0,-2.240003 0.96,-3.946672 0.98667,-1.733335 2.66667,-2.640003 1.68001,-0.933335 3.76001,-0.933335 2.08,0 3.76,0.933335 1.68001,0.906668 2.64001,2.613336 0.98667,1.706669 0.98667,3.973339 0,2.266669 -1.01334,4.000005 -0.98667,1.706669 -2.69334,2.640003 -1.70666,0.933335 -3.78667,0.933335 z m 0,-2.133336 q 1.30667,0 2.45334,-0.613334 1.14667,-0.613334 1.84,-1.840003 0.72,-1.226668 0.72,-2.98667 0,-1.760002 -0.69333,-2.986671 -0.69334,-1.226668 -1.81334,-1.813335 -1.12,-0.613334 -2.42667,-0.613334 -1.33333,0 -2.45333,0.613334 -1.09334,0.586667 -1.76001,1.813335 -0.66666,1.226669 -0.66666,2.986671 0,1.786669 0.64,3.013337 0.66666,1.226668 1.76,1.840002 1.09333,0.586668 2.4,0.586668 z m 13.12,-17.840023 v 19.733358 h -2.42667 V 40.256998 Z m 10.50669,19.973359 q -2.05334,0 -3.73334,-0.933335 -1.65333,-0.933334 -2.61334,-2.640003 -0.93333,-1.733336 -0.93333,-4.000005 0,-2.240003 0.96,-3.946672 0.98667,-1.733335 2.66667,-2.640003 1.68,-0.933335 3.76001,-0.933335 2.08,0 3.76,0.933335 1.68,0.906668 2.64,2.613336 0.98667,1.706669 0.98667,3.973339 0,2.266669 -1.01333,4.000005 -0.98667,1.706669 -2.69334,2.640003 -1.70667,0.933335 -3.78667,0.933335 z m 0,-2.133336 q 1.30667,0 2.45334,-0.613334 1.14666,-0.613334 1.84,-1.840003 0.72,-1.226668 0.72,-2.98667 0,-1.760002 -0.69334,-2.986671 -0.69333,-1.226668 -1.81333,-1.813335 -1.12,-0.613334 -2.42667,-0.613334 -1.33334,0 -2.45334,0.613334 -1.09333,0.586667 -1.76,1.813335 -0.66667,1.226669 -0.66667,2.986671 0,1.786669 0.64,3.013337 0.66667,1.226668 1.76001,1.840002 1.09333,0.586668 2.4,0.586668 z m 16.72,-12.960017 q 1.89334,0 3.30668,0.826668 1.44,0.826668 2.13333,2.080003 v -2.66667 h 2.45334 v 14.933352 q 0,2.000002 -0.85334,3.546671 -0.85333,1.573335 -2.45333,2.453336 -1.57334,0.880002 -3.68001,0.880002 -2.88,0 -4.8,-1.360002 -1.92001,-1.360002 -2.26667,-3.706672 h 2.4 q 0.4,1.333335 1.65334,2.133337 1.25333,0.826667 3.01333,0.826667 2.00001,0 3.25334,-1.253335 1.28,-1.253335 1.28,-3.520004 v -3.066671 q -0.72,1.280002 -2.13333,2.133336 -1.41334,0.853335 -3.30668,0.853335 -1.94666,0 -3.54667,-0.960001 -1.57333,-0.960002 -2.48,-2.693337 -0.90667,-1.733336 -0.90667,-3.946672 0,-2.240003 0.90667,-3.920005 0.90667,-1.706669 2.48,-2.640003 1.60001,-0.933335 3.54667,-0.933335 z m 5.44001,7.52001 q 0,-1.653336 -0.66667,-2.880004 -0.66666,-1.226668 -1.81333,-1.866669 -1.12,-0.666667 -2.48,-0.666667 -1.36001,0 -2.48001,0.64 -1.12,0.640001 -1.78667,1.86667 -0.66666,1.226668 -0.66666,2.880003 0,1.680002 0.66666,2.933337 0.66667,1.226668 1.78667,1.893336 1.12,0.640001 2.48001,0.640001 1.36,0 2.48,-0.640001 1.14667,-0.666668 1.81333,-1.893336 0.66667,-1.253335 0.66667,-2.90667 z m 19.1467,-7.280009 -8.80001,21.49336 h -2.50667 l 2.88,-7.040009 -5.89334,-14.453351 h 2.69334 l 4.58667,11.840015 4.53334,-11.840015 z"
         id="path11" />
      <path
         style="font-family:Poppins;-inkscape-font-specification:Poppins"
         d="m 381.06167,95.009603 q -1.84,0 -3.30667,-0.640001 -1.44,-0.666667 -2.26667,-1.813335 -0.82667,-1.173335 -0.85333,-2.693337 h 2.58667 q 0.13333,1.306668 1.06667,2.213336 0.96,0.880001 2.77333,0.880001 1.73334,0 2.72001,-0.853334 1.01333,-0.880001 1.01333,-2.240003 0,-1.066668 -0.58667,-1.733335 -0.58666,-0.666668 -1.46667,-1.013335 -0.88,-0.346667 -2.37333,-0.746668 -1.84,-0.48 -2.96001,-0.960001 -1.09333,-0.48 -1.89333,-1.493335 -0.77334,-1.040001 -0.77334,-2.773337 0,-1.520002 0.77334,-2.693337 0.77333,-1.173334 2.16,-1.813335 1.41334,-0.640001 3.22667,-0.640001 2.61334,0 4.26667,1.306668 1.68001,1.306669 1.89334,3.466671 h -2.66667 q -0.13333,-1.066668 -1.12,-1.866669 -0.98667,-0.826667 -2.61334,-0.826667 -1.52,0 -2.48,0.800001 -0.96,0.773334 -0.96,2.186669 0,1.013335 0.56,1.653335 0.58667,0.640001 1.41333,0.986668 0.85334,0.320001 2.37334,0.746668 1.84,0.506667 2.96,1.013335 1.12,0.48 1.92001,1.520001 0.8,1.013335 0.8,2.773337 0,1.360002 -0.72,2.560004 -0.72001,1.200001 -2.13334,1.946669 -1.41334,0.746667 -3.33334,0.746667 z m 12.72001,-12.800016 v 8.613344 q 0,1.066668 0.45334,1.520002 0.45333,0.426667 1.57333,0.426667 h 1.78667 v 2.053336 h -2.18667 q -2.02667,0 -3.04,-0.933334 -1.01333,-0.933335 -1.01333,-3.066671 v -8.613344 h -1.89334 v -2.000002 h 1.89334 V 76.52958 h 2.42666 v 3.680005 h 3.81334 v 2.000002 z m 9.17336,0.373334 q 0.64,-1.253335 1.81334,-1.946669 1.2,-0.693334 2.90667,-0.693334 v 2.506669 h -0.64001 q -4.08,0 -4.08,4.426673 v 7.946676 h -2.42667 V 80.209585 h 2.42667 z m 6.61332,4.880006 q 0,-2.240003 0.90667,-3.920005 0.90666,-1.706669 2.48,-2.640003 1.6,-0.933335 3.54667,-0.933335 1.92,0 3.33334,0.826668 1.41333,0.826668 2.10667,2.080003 v -2.66667 h 2.45333 v 14.613351 h -2.45333 v -2.720003 q -0.72,1.280002 -2.16001,2.133336 -1.41333,0.826668 -3.30667,0.826668 -1.94667,0 -3.52,-0.960002 -1.57334,-0.960001 -2.48,-2.693336 -0.90667,-1.733336 -0.90667,-3.946672 z m 12.37335,0.02667 q 0,-1.653336 -0.66667,-2.880004 -0.66667,-1.226668 -1.81334,-1.866669 -1.12,-0.666667 -2.48,-0.666667 -1.36,0 -2.48,0.64 -1.12,0.640001 -1.78667,1.866669 -0.66667,1.226669 -0.66667,2.880004 0,1.680002 0.66667,2.933337 0.66667,1.226668 1.78667,1.893336 1.12,0.640001 2.48,0.640001 1.36,0 2.48,-0.640001 1.14667,-0.666668 1.81334,-1.893336 0.66667,-1.253335 0.66667,-2.90667 z m 9.52003,-5.280007 v 8.613344 q 0,1.066668 0.45333,1.520002 0.45333,0.426667 1.57334,0.426667 h 1.78666 v 2.053336 h -2.18667 q -2.02666,0 -3.04,-0.933334 -1.01333,-0.933335 -1.01333,-3.066671 v -8.613344 h -1.89334 v -2.000002 h 1.89334 V 76.52958 h 2.42667 v 3.680005 h 3.81333 v 2.000002 z m 20.08003,4.746673 q 0,0.693334 -0.08,1.466668 h -11.68001 q 0.13333,2.160003 1.46666,3.386671 1.36001,1.200002 3.28001,1.200002 1.57333,0 2.61333,-0.720001 1.06667,-0.746668 1.49334,-1.973336 h 2.61334 q -0.58667,2.106669 -2.34667,3.440004 -1.76001,1.306669 -4.37334,1.306669 -2.08,0 -3.73334,-0.933335 -1.62667,-0.933334 -2.56,-2.640003 -0.93334,-1.733336 -0.93334,-4.000005 0,-2.26667 0.90667,-3.973339 0.90667,-1.706668 2.53334,-2.613336 1.65333,-0.933335 3.78667,-0.933335 2.08,0 3.68,0.906668 1.6,0.906668 2.45334,2.50667 0.88,1.573335 0.88,3.573338 z m -2.50667,-0.506668 q 0,-1.386668 -0.61333,-2.373336 -0.61334,-1.013335 -1.68001,-1.520002 -1.04,-0.533334 -2.32,-0.533334 -1.84,0 -3.14667,1.173335 -1.28,1.173335 -1.46667,3.253337 z m 11.73337,-6.480008 q 1.89333,0 3.30667,0.826668 1.44,0.826668 2.13334,2.080003 v -2.66667 h 2.45333 v 14.933352 q 0,2.000002 -0.85333,3.546671 -0.85334,1.573332 -2.45334,2.453332 -1.57333,0.88001 -3.68,0.88001 -2.88001,0 -4.80001,-1.36001 -1.92,-1.359998 -2.26667,-3.706668 h 2.4 q 0.4,1.333335 1.65334,2.133336 1.25333,0.826668 3.01334,0.826668 2,0 3.25333,-1.253335 1.28001,-1.253335 1.28001,-3.520004 v -3.066671 q -0.72001,1.280002 -2.13334,2.133336 -1.41334,0.853335 -3.30667,0.853335 -1.94667,0 -3.54667,-0.960002 -1.57334,-0.960001 -2.48001,-2.693336 -0.90666,-1.733336 -0.90666,-3.946672 0,-2.240003 0.90666,-3.920005 0.90667,-1.706669 2.48001,-2.640003 1.6,-0.933335 3.54667,-0.933335 z m 5.44001,7.52001 q 0,-1.653336 -0.66667,-2.880004 -0.66667,-1.226668 -1.81334,-1.866669 -1.12,-0.666667 -2.48,-0.666667 -1.36,0 -2.48,0.64 -1.12,0.640001 -1.78667,1.866669 -0.66667,1.226669 -0.66667,2.880004 0,1.680002 0.66667,2.933337 0.66667,1.226668 1.78667,1.893336 1.12,0.640001 2.48,0.640001 1.36,0 2.48,-0.640001 1.14667,-0.666668 1.81334,-1.893336 0.66667,-1.253335 0.66667,-2.90667 z m 19.14671,-7.280009 -8.80001,21.493365 h -2.50667 l 2.88,-7.040014 -5.89334,-14.453351 h 2.69334 l 4.58667,11.840015 4.53334,-11.840015 z"
         id="path12" />
      <path
         style="font-family:Poppins;-inkscape-font-specification:Poppins"
         d="m 358.75503,120.34884 q 0,-2.72001 1.22666,-4.88001 1.22667,-2.18667 3.33334,-3.41334 2.13334,-1.22666 4.72001,-1.22666 3.04,0 5.30667,1.46666 2.26667,1.46667 3.30667,4.16001 h -2.90667 q -0.77333,-1.68 -2.24,-2.58667 -1.44,-0.90667 -3.46667,-0.90667 -1.94667,0 -3.49334,0.90667 -1.54667,0.90667 -2.42667,2.58667 -0.88,1.65333 -0.88,3.89334 0,2.21333 0.88,3.89334 0.88,1.65333 2.42667,2.56 1.54667,0.90667 3.49334,0.90667 2.02667,0 3.46667,-0.88 1.46667,-0.90667 2.24,-2.58667 h 2.90667 q -1.04,2.66667 -3.30667,4.13333 -2.26667,1.44001 -5.30667,1.44001 -2.58667,0 -4.72001,-1.20001 -2.10667,-1.22666 -3.33334,-3.38667 -1.22666,-2.16 -1.22666,-4.88 z m 27.86668,9.54668 q -2.05333,0 -3.73334,-0.93334 -1.65333,-0.93333 -2.61333,-2.64 -0.93334,-1.73334 -0.93334,-4.00001 0,-2.24 0.96,-3.94667 0.98667,-1.73333 2.66667,-2.64 1.68001,-0.93334 3.76001,-0.93334 2.08,0 3.76,0.93334 1.68001,0.90667 2.64001,2.61334 0.98666,1.70666 0.98666,3.97333 0,2.26667 -1.01333,4.00001 -0.98667,1.70667 -2.69334,2.64 -1.70667,0.93334 -3.78667,0.93334 z m 0,-2.13334 q 1.30667,0 2.45334,-0.61333 1.14667,-0.61334 1.84,-1.84001 0.72,-1.22666 0.72,-2.98667 0,-1.76 -0.69333,-2.98667 -0.69334,-1.22667 -1.81334,-1.81333 -1.12,-0.61334 -2.42667,-0.61334 -1.33333,0 -2.45333,0.61334 -1.09334,0.58666 -1.76001,1.81333 -0.66666,1.22667 -0.66666,2.98667 0,1.78667 0.64,3.01334 0.66666,1.22667 1.76,1.84 1.09333,0.58667 2.4,0.58667 z m 17.81334,-12.98668 q 2.66667,0 4.32001,1.62667 1.65333,1.6 1.65333,4.64 v 8.61335 h -2.4 v -8.26668 q 0,-2.18667 -1.09334,-3.33334 -1.09333,-1.17333 -2.98667,-1.17333 -1.92,0 -3.06667,1.2 -1.12,1.2 -1.12,3.49334 v 8.08001 h -2.42667 v -14.61336 h 2.42667 v 2.08001 q 0.72,-1.12 1.94667,-1.73334 1.25334,-0.61333 2.74667,-0.61333 z m 15.12,15.12002 q -1.68,0 -3.01334,-0.56 -1.33333,-0.58667 -2.10667,-1.60001 -0.77333,-1.04 -0.85333,-2.37333 h 2.50667 q 0.10667,1.09333 1.01333,1.78667 0.93334,0.69333 2.42667,0.69333 1.38667,0 2.18667,-0.61333 0.8,-0.61334 0.8,-1.54667 0,-0.96 -0.85333,-1.41334 -0.85333,-0.48 -2.64,-0.93333 -1.62667,-0.42667 -2.66667,-0.85334 -1.01334,-0.45333 -1.76001,-1.30666 -0.72,-0.88001 -0.72,-2.29334 0,-1.12 0.66667,-2.05334 0.66667,-0.93333 1.89334,-1.46667 1.22667,-0.56 2.8,-0.56 2.42667,0 3.92001,1.22667 1.49333,1.22667 1.6,3.36001 h -2.42667 q -0.08,-1.14667 -0.93334,-1.84001 -0.82666,-0.69333 -2.24,-0.69333 -1.30667,0 -2.08,0.56 -0.77334,0.56 -0.77334,1.46667 0,0.72 0.45334,1.2 0.48,0.45333 1.17333,0.74667 0.72,0.26667 1.97334,0.61333 1.57333,0.42667 2.56,0.85334 0.98667,0.4 1.68,1.22667 0.72,0.82666 0.74667,2.16 0,1.2 -0.66667,2.16 -0.66666,0.96 -1.89333,1.52 -1.2,0.53334 -2.77334,0.53334 z m 21.70668,-14.85336 v 14.61336 h -2.42667 v -2.16001 q -0.69334,1.12 -1.94667,1.76001 -1.22667,0.61333 -2.72001,0.61333 -1.70667,0 -3.06667,-0.69333 -1.36,-0.72001 -2.16,-2.13334 -0.77333,-1.41334 -0.77333,-3.44 v -8.56002 h 2.4 v 8.24001 q 0,2.16001 1.09333,3.33334 1.09334,1.14667 2.98667,1.14667 1.94667,0 3.06667,-1.2 1.12001,-1.2 1.12001,-3.49334 v -8.02668 z m 6.53332,-5.12 v 19.73336 h -2.42667 v -19.73336 z m 7.09336,7.12001 v 8.61334 q 0,1.06667 0.45333,1.52 0.45333,0.42667 1.57334,0.42667 h 1.78666 v 2.05334 h -2.18666 q -2.02667,0 -3.04001,-0.93334 -1.01333,-0.93333 -1.01333,-3.06667 v -8.61334 h -1.89334 v -2.00001 h 1.89334 v -3.68 h 2.42667 v 3.68 h 3.81333 v 2.00001 z m 8.00002,-4.37334 q -0.69334,0 -1.17334,-0.48 -0.48,-0.48 -0.48,-1.17334 0,-0.69333 0.48,-1.17333 0.48,-0.48 1.17334,-0.48 0.66666,0 1.12,0.48 0.48,0.48 0.48,1.17333 0,0.69334 -0.48,1.17334 -0.45334,0.48 -1.12,0.48 z m 1.17333,2.37333 v 14.61336 h -2.42667 v -14.61336 z m 11.25335,-0.26666 q 2.66667,0 4.32001,1.62667 1.65333,1.6 1.65333,4.64 v 8.61335 h -2.4 v -8.26668 q 0,-2.18667 -1.09333,-3.33334 -1.09334,-1.17333 -2.98667,-1.17333 -1.92001,0 -3.06668,1.2 -1.12,1.2 -1.12,3.49334 v 8.08001 h -2.42667 v -14.61336 h 2.42667 v 2.08001 q 0.72,-1.12 1.94667,-1.73334 1.25334,-0.61333 2.74667,-0.61333 z m 15.97334,0.0267 q 1.89334,0 3.30667,0.82667 1.44,0.82667 2.13334,2.08 v -2.66667 h 2.45333 v 14.93336 q 0,2 -0.85333,3.54667 -0.85333,1.57333 -2.45334,2.45333 -1.57333,0.88001 -3.68,0.88001 -2.88,0 -4.80001,-1.36001 -1.92,-1.36 -2.26667,-3.70667 h 2.40001 q 0.4,1.33334 1.65333,2.13334 1.25334,0.82667 3.01334,0.82667 2,0 3.25334,-1.25334 1.28,-1.25333 1.28,-3.52 v -3.06667 q -0.72,1.28 -2.13334,2.13333 -1.41333,0.85334 -3.30667,0.85334 -1.94667,0 -3.54667,-0.96 -1.57334,-0.96001 -2.48,-2.69334 -0.90667,-1.73334 -0.90667,-3.94667 0,-2.24001 0.90667,-3.92001 0.90666,-1.70667 2.48,-2.64 1.6,-0.93334 3.54667,-0.93334 z m 5.44001,7.52001 q 0,-1.65333 -0.66667,-2.88 -0.66667,-1.22667 -1.81334,-1.86667 -1.12,-0.66667 -2.48,-0.66667 -1.36,0 -2.48,0.64 -1.12,0.64001 -1.78667,1.86667 -0.66667,1.22667 -0.66667,2.88001 0,1.68 0.66667,2.93333 0.66667,1.22667 1.78667,1.89334 1.12,0.64 2.48,0.64 1.36,0 2.48,-0.64 1.14667,-0.66667 1.81334,-1.89334 0.66667,-1.25333 0.66667,-2.90667 z"
         id="path13" />
    </g>
    <path
       id="rect3-27"
       style="fill:#3399ff;fill-opacity:1;stroke-width:6.85504"
       d="m 641.32763,145.76291 h 10.41922 v 43.22594 H 641.32763 Z M 569.65143,27.422396 h 153.77162 c 9.81445,0 17.71562,7.90117 17.71562,17.71562 V 128.0473 c 0,9.81445 -7.90117,17.71562 -17.71562,17.71562 H 569.65143 c -9.81446,0 -17.71563,-7.90117 -17.71563,-17.71562 V 45.138016 c 0,-9.81445 7.90117,-17.71562 17.71563,-17.71562 z m 76.88581,188.128244 -7.66773,-13.28089 -7.66772,-13.2809 h 15.33545 15.33545 l -7.66773,13.2809 z" />
    <g
       id="text3-3"
       style="font-size:26.6667px;font-family:Orbitron;-inkscape-font-specification:Orbitron;text-align:center;text-anchor:middle;fill:#ffffff;stroke-width:3.36574"
       aria-label="Product&#10;Development">
      <path
         style="font-family:Poppins;-inkscape-font-specification:Poppins"
         d="m 608.40284,63.903793 q 0,2.320003 -1.6,3.866671 -1.57334,1.520002 -4.82667,1.520002 h -3.57334 v 7.76001 h -2.42667 v -18.58669 h 6.00001 q 3.14667,0 4.77333,1.520002 1.65334,1.520002 1.65334,3.920005 z m -6.42667,3.386671 q 2.02666,0 2.98667,-0.880001 0.96,-0.880001 0.96,-2.50667 0,-3.440005 -3.94667,-3.440005 h -3.57334 v 6.826676 z m 11.86669,-2.480003 q 0.64,-1.253335 1.81334,-1.94667 1.2,-0.693334 2.90667,-0.693334 v 2.50667 h -0.64001 q -4.08,0 -4.08,4.426672 v 7.946677 h -2.42667 V 62.437124 h 2.42667 z m 13.89333,12.480015 q -2.05334,0 -3.73334,-0.933334 -1.65333,-0.933335 -2.61334,-2.640003 -0.93333,-1.733336 -0.93333,-4.000006 0,-2.240002 0.96,-3.946671 0.98667,-1.733336 2.66667,-2.640004 1.68,-0.933334 3.76001,-0.933334 2.08,0 3.76,0.933334 1.68,0.906668 2.64,2.613337 0.98667,1.706669 0.98667,3.973338 0,2.26667 -1.01333,4.000006 -0.98667,1.706668 -2.69334,2.640003 -1.70667,0.933334 -3.78667,0.933334 z m 0,-2.133336 q 1.30667,0 2.45334,-0.613334 1.14666,-0.613334 1.84,-1.840002 0.72,-1.226668 0.72,-2.986671 0,-1.760002 -0.69334,-2.98667 -0.69333,-1.226668 -1.81333,-1.813336 -1.12,-0.613334 -2.42667,-0.613334 -1.33334,0 -2.45334,0.613334 -1.09333,0.586668 -1.76,1.813336 -0.66667,1.226668 -0.66667,2.98667 0,1.786669 0.64,3.013338 0.66667,1.226668 1.76001,1.840002 1.09333,0.586667 2.4,0.586667 z m 9.78666,-5.466673 q 0,-2.240003 0.90667,-3.920005 0.90667,-1.706669 2.48,-2.640004 1.6,-0.933334 3.57334,-0.933334 1.70667,0 3.17334,0.800001 1.46667,0.773334 2.24,2.053336 v -7.733343 h 2.45334 v 19.733358 h -2.45334 v -2.74667 q -0.72,1.306668 -2.13334,2.160003 -1.41333,0.826667 -3.30667,0.826667 -1.94667,0 -3.54667,-0.960001 -1.57333,-0.960001 -2.48,-2.693337 -0.90667,-1.733335 -0.90667,-3.946671 z m 12.37335,0.02667 q 0,-1.653335 -0.66667,-2.880003 -0.66666,-1.226668 -1.81333,-1.866669 -1.12,-0.666668 -2.48001,-0.666668 -1.36,0 -2.48,0.640001 -1.12,0.640001 -1.78667,1.866669 -0.66667,1.226668 -0.66667,2.880004 0,1.680002 0.66667,2.933337 0.66667,1.226668 1.78667,1.893336 1.12,0.64 2.48,0.64 1.36001,0 2.48001,-0.64 1.14667,-0.666668 1.81333,-1.893336 0.66667,-1.253335 0.66667,-2.906671 z m 19.52004,-7.280009 v 14.613352 h -2.42667 v -2.160003 q -0.69334,1.120002 -1.94667,1.760003 -1.22667,0.613334 -2.72,0.613334 -1.70667,0 -3.06667,-0.693335 -1.36001,-0.72 -2.16001,-2.133336 -0.77333,-1.413335 -0.77333,-3.440004 v -8.560011 h 2.4 v 8.240011 q 0,2.160002 1.09334,3.333337 1.09333,1.146668 2.98667,1.146668 1.94667,0 3.06667,-1.200001 1.12,-1.200002 1.12,-3.493338 v -8.026677 z m 3.19999,7.280009 q 0,-2.266669 0.90667,-3.946671 0.90666,-1.706669 2.50667,-2.640004 1.62666,-0.933334 3.70667,-0.933334 2.69333,0 4.42667,1.306668 1.76,1.306669 2.32,3.626672 h -2.61333 q -0.37334,-1.333335 -1.46667,-2.10667 -1.06667,-0.773334 -2.66667,-0.773334 -2.08001,0 -3.36001,1.440002 -1.28,1.413335 -1.28,4.026671 0,2.640004 1.28,4.080006 1.28,1.440001 3.36001,1.440001 1.6,0 2.66667,-0.746667 1.06666,-0.746668 1.46667,-2.133336 h 2.61333 q -0.58667,2.240003 -2.34667,3.600004 -1.76,1.333335 -4.4,1.333335 -2.08001,0 -3.70667,-0.933334 -1.60001,-0.933335 -2.50667,-2.640003 -0.90667,-1.706669 -0.90667,-4.000006 z m 20.05337,-5.280006 v 8.613344 q 0,1.066668 0.45333,1.520002 0.45334,0.426667 1.57334,0.426667 h 1.78667 v 2.053336 h -2.18667 q -2.02667,0 -3.04001,-0.933334 -1.01333,-0.933335 -1.01333,-3.066671 v -8.613344 h -1.89334 v -2.000003 h 1.89334 V 58.75712 h 2.42667 v 3.680004 h 3.81334 v 2.000003 z"
         id="path9" />
      <path
         style="font-family:Poppins;-inkscape-font-specification:Poppins"
         d="m 563.82938,93.296366 q 3.04001,0 5.25334,1.146668 2.24001,1.120001 3.41334,3.226671 1.2,2.106669 1.2,4.960005 0,2.85334 -1.2,4.96001 -1.17333,2.08 -3.41334,3.2 -2.21333,1.09334 -5.25334,1.09334 h -5.78667 V 93.296366 Z m 0,16.586684 q 3.60001,0 5.49334,-1.89333 1.89334,-1.92 1.89334,-5.36001 0,-3.46667 -1.92,-5.413339 -1.89334,-1.946669 -5.46668,-1.946669 h -3.36 v 14.613348 z m 26.40006,-5.86667 q 0,0.69333 -0.08,1.46667 h -11.68002 q 0.13333,2.16 1.46667,3.38667 1.36,1.2 3.28,1.2 1.57334,0 2.61334,-0.72 1.06667,-0.74667 1.49334,-1.97334 h 2.61333 q -0.58667,2.10667 -2.34667,3.44001 -1.76,1.30667 -4.37334,1.30667 -2.08,0 -3.73333,-0.93334 -1.62667,-0.93333 -2.56001,-2.64 -0.93333,-1.73334 -0.93333,-4.00001 0,-2.26667 0.90667,-3.97333 0.90666,-1.706674 2.53333,-2.613342 1.65334,-0.933334 3.78667,-0.933334 2.08001,0 3.68001,0.906668 1.6,0.906667 2.45333,2.506668 0.88001,1.57334 0.88001,3.57334 z m -2.50667,-0.50667 q 0,-1.38667 -0.61334,-2.37333 -0.61333,-1.01334 -1.68,-1.520006 -1.04,-0.533334 -2.32,-0.533334 -1.84001,0 -3.14667,1.17333 -1.28001,1.17334 -1.46667,3.25334 z m 11.1467,6.13334 4.53334,-12.373346 h 2.58667 l -5.73334,14.613356 h -2.82667 l -5.73334,-14.613356 h 2.61333 z m 22.85338,-5.62667 q 0,0.69333 -0.08,1.46667 h -11.68001 q 0.13333,2.16 1.46667,3.38667 1.36,1.2 3.28,1.2 1.57334,0 2.61334,-0.72 1.06667,-0.74667 1.49333,-1.97334 h 2.61334 q -0.58667,2.10667 -2.34667,3.44001 -1.76,1.30667 -4.37334,1.30667 -2.08,0 -3.73334,-0.93334 -1.62667,-0.93333 -2.56,-2.64 -0.93333,-1.73334 -0.93333,-4.00001 0,-2.26667 0.90666,-3.97333 0.90667,-1.706674 2.53334,-2.613342 1.65334,-0.933334 3.78667,-0.933334 2.08,0 3.68001,0.906668 1.6,0.906667 2.45333,2.506668 0.88,1.57334 0.88,3.57334 z m -2.50667,-0.50667 q 0,-1.38667 -0.61333,-2.37333 -0.61333,-1.01334 -1.68,-1.520006 -1.04,-0.533334 -2.32001,-0.533334 -1.84,0 -3.14667,1.17333 -1.28,1.17334 -1.46666,3.25334 z m 8.13337,-11.360012 v 19.733362 h -2.42667 V 92.149698 Z m 10.50669,19.973362 q -2.05334,0 -3.73334,-0.93334 -1.65334,-0.93333 -2.61334,-2.64 -0.93333,-1.73334 -0.93333,-4.00001 0,-2.24 0.96,-3.94667 0.98667,-1.733334 2.66667,-2.640002 1.68,-0.933334 3.76,-0.933334 2.08001,0 3.76001,0.933334 1.68,0.906668 2.64,2.613342 0.98667,1.70666 0.98667,3.97333 0,2.26667 -1.01334,4.00001 -0.98666,1.70667 -2.69333,2.64 -1.70667,0.93334 -3.78667,0.93334 z m 0,-2.13334 q 1.30666,0 2.45333,-0.61333 1.14667,-0.61334 1.84001,-1.84001 0.72,-1.22666 0.72,-2.98667 0,-1.76 -0.69334,-2.98667 -0.69333,-1.22667 -1.81333,-1.813333 -1.12001,-0.613334 -2.42667,-0.613334 -1.33334,0 -2.45334,0.613334 -1.09333,0.586663 -1.76,1.813333 -0.66667,1.22667 -0.66667,2.98667 0,1.78667 0.64,3.01334 0.66667,1.22667 1.76,1.84 1.09334,0.58667 2.40001,0.58667 z m 13.12,-10.026679 q 0.72,-1.253335 2.13333,-2.080003 1.44001,-0.853334 3.33334,-0.853334 1.94667,0 3.52001,0.933334 1.6,0.933335 2.50667,2.640002 0.90666,1.68 0.90666,3.92001 0,2.21333 -0.90666,3.94667 -0.90667,1.73333 -2.50667,2.69334 -1.57334,0.96 -3.52001,0.96 -1.86667,0 -3.30667,-0.82667 -1.41333,-0.85334 -2.16,-2.10667 v 9.62668 h -2.42667 V 97.269704 h 2.42667 z m 9.92001,4.560009 q 0,-1.65334 -0.66667,-2.88001 -0.66666,-1.22667 -1.81333,-1.866666 -1.12,-0.640001 -2.48001,-0.640001 -1.33333,0 -2.48,0.666668 -1.12,0.639999 -1.81333,1.893339 -0.66667,1.22666 -0.66667,2.85333 0,1.65334 0.66667,2.90667 0.69333,1.22667 1.81333,1.89334 1.14667,0.64 2.48,0.64 1.36001,0 2.48001,-0.64 1.14667,-0.66667 1.81333,-1.89334 0.66667,-1.25333 0.66667,-2.93333 z m 23.25338,-7.520013 q 1.70667,0 3.04,0.720001 1.33334,0.693334 2.10667,2.106669 0.77333,1.413333 0.77333,3.440003 v 8.61335 h -2.4 v -8.26668 q 0,-2.18667 -1.09333,-3.33334 -1.06667,-1.173333 -2.90667,-1.173333 -1.89334,0 -3.01334,1.226663 -1.12,1.20001 -1.12,3.49334 v 8.05335 h -2.40001 v -8.26668 q 0,-2.18667 -1.09333,-3.33334 -1.06667,-1.173333 -2.90667,-1.173333 -1.89334,0 -3.01334,1.226663 -1.12,1.20001 -1.12,3.49334 v 8.05335 h -2.42667 V 97.269704 h 2.42667 v 2.10667 q 0.72,-1.146669 1.92,-1.760003 1.22667,-0.613334 2.69334,-0.613334 1.84,0 3.25334,0.826668 1.41333,0.826668 2.10667,2.426665 0.61333,-1.546664 2.02667,-2.399998 1.41333,-0.853335 3.14667,-0.853335 z m 23.22672,7.013343 q 0,0.69333 -0.08,1.46667 h -11.68002 q 0.13334,2.16 1.46667,3.38667 1.36,1.2 3.28001,1.2 1.57333,0 2.61333,-0.72 1.06667,-0.74667 1.49334,-1.97334 h 2.61334 q -0.58667,2.10667 -2.34667,3.44001 -1.76001,1.30667 -4.37334,1.30667 -2.08001,0 -3.73334,-0.93334 -1.62667,-0.93333 -2.56,-2.64 -0.93334,-1.73334 -0.93334,-4.00001 0,-2.26667 0.90667,-3.97333 0.90667,-1.706674 2.53334,-2.613342 1.65333,-0.933334 3.78667,-0.933334 2.08,0 3.68,0.906668 1.6,0.906667 2.45334,2.506668 0.88,1.57334 0.88,3.57334 z m -2.50667,-0.50667 q 0,-1.38667 -0.61333,-2.37333 -0.61334,-1.01334 -1.68001,-1.520006 -1.04,-0.533334 -2.32,-0.533334 -1.84,0 -3.14667,1.17333 -1.28,1.17334 -1.46667,3.25334 z m 12.8267,-6.506673 q 2.66667,0 4.32,1.626669 1.65334,1.600004 1.65334,4.640004 v 8.61335 h -2.4 v -8.26668 q 0,-2.18667 -1.09334,-3.33334 -1.09333,-1.173333 -2.98667,-1.173333 -1.92,0 -3.06667,1.200003 -1.12,1.2 -1.12,3.49334 v 8.08001 h -2.42667 V 97.269704 h 2.42667 v 2.080003 q 0.72,-1.120002 1.94667,-1.733336 1.25333,-0.613334 2.74667,-0.613334 z m 12.90666,2.26667 v 8.613343 q 0,1.06667 0.45333,1.52 0.45334,0.42667 1.57334,0.42667 h 1.78667 v 2.05334 h -2.18667 q -2.02667,0 -3.04001,-0.93334 -1.01333,-0.93333 -1.01333,-3.06667 v -8.613343 h -1.89334 v -2.000003 h 1.89334 V 93.5897 h 2.42667 v 3.680004 h 3.81334 v 2.000003 z"
         id="path10" />
    </g>
    <rect
       style="fill:#3399ff;fill-opacity:1;stroke-width:9.69449"
       id="rect7"
       width="624.23163"
       height="42.684624"
       x="116.90706"
       y="215.55064"
       ry="15.543508" />
    <g
       id="text7"
       style="font-size:39.6151px;font-family:Poppins;-inkscape-font-specification:Poppins;text-align:center;text-anchor:middle;fill:#ffffff;stroke-width:5.1435"
       aria-label="Zeroth Technology Fountational Tooling">
      <path
         style="font-size:26.6667px"
         d="m 170.91591,241.33295 h 9.06668 v 2.10667 h -11.94668 v -1.92 l 9.01334,-14.56002 h -8.90668 v -2.10667 h 11.78669 v 1.92 z m 25.70671,-5.76001 q 0,0.69334 -0.08,1.46667 H 184.8626 q 0.13334,2.16001 1.46667,3.38667 1.36,1.20001 3.28001,1.20001 1.57333,0 2.61333,-0.72001 1.06667,-0.74666 1.49334,-1.97333 h 2.61334 q -0.58667,2.10667 -2.34667,3.44 -1.76001,1.30667 -4.37334,1.30667 -2.08001,0 -3.73334,-0.93333 -1.62667,-0.93334 -2.56,-2.64001 -0.93334,-1.73333 -0.93334,-4 0,-2.26667 0.90667,-3.97334 0.90667,-1.70667 2.53334,-2.61334 1.65333,-0.93333 3.78667,-0.93333 2.08,0 3.68,0.90667 1.6,0.90666 2.45334,2.50667 0.88,1.57333 0.88,3.57333 z m -2.50667,-0.50666 q 0,-1.38667 -0.61333,-2.37334 -0.61334,-1.01333 -1.68001,-1.52 -1.04,-0.53334 -2.32,-0.53334 -1.84,0 -3.14667,1.17334 -1.28,1.17333 -1.46667,3.25334 z m 8.13337,-3.86667 q 0.64,-1.25334 1.81333,-1.94667 1.2,-0.69334 2.90667,-0.69334 v 2.50667 h -0.64 q -4.08,0 -4.08,4.42667 v 7.94668 h -2.42667 v -14.61335 h 2.42667 z m 13.89333,12.48001 q -2.05334,0 -3.73334,-0.93333 -1.65334,-0.93334 -2.61334,-2.64001 -0.93333,-1.73333 -0.93333,-4 0,-2.24 0.96,-3.94667 0.98667,-1.73334 2.66667,-2.64001 1.68,-0.93333 3.76,-0.93333 2.08001,0 3.76001,0.93333 1.68,0.90667 2.64,2.61334 0.98667,1.70667 0.98667,3.97334 0,2.26667 -1.01334,4 -0.98666,1.70667 -2.69333,2.64001 -1.70667,0.93333 -3.78667,0.93333 z m 0,-2.13333 q 1.30666,0 2.45333,-0.61334 1.14667,-0.61333 1.84001,-1.84 0.72,-1.22667 0.72,-2.98667 0,-1.76 -0.69334,-2.98667 -0.69333,-1.22667 -1.81333,-1.81334 -1.12001,-0.61333 -2.42667,-0.61333 -1.33334,0 -2.45334,0.61333 -1.09333,0.58667 -1.76,1.81334 -0.66667,1.22667 -0.66667,2.98667 0,1.78667 0.64,3.01334 0.66667,1.22666 1.76,1.84 1.09334,0.58667 2.40001,0.58667 z m 13.65333,-10.72002 v 8.61335 q 0,1.06666 0.45333,1.52 0.45334,0.42667 1.57334,0.42667 h 1.78667 v 2.05333 h -2.18667 q -2.02667,0 -3.04001,-0.93333 -1.01333,-0.93334 -1.01333,-3.06667 v -8.61335 h -1.89334 v -2 h 1.89334 v -3.68001 h 2.42667 v 3.68001 h 3.81334 v 2 z m 14.00003,-2.26667 q 1.65333,0 2.98667,0.72 1.33333,0.69334 2.08,2.10667 0.77334,1.41334 0.77334,3.44001 v 8.61334 h -2.40001 v -8.26668 q 0,-2.18667 -1.09333,-3.33333 -1.09334,-1.17334 -2.98667,-1.17334 -1.92,0 -3.06667,1.2 -1.12,1.2 -1.12,3.49334 v 8.08001 h -2.42667 v -19.73336 h 2.42667 v 7.20001 q 0.72,-1.12 1.97333,-1.73333 1.28,-0.61334 2.85334,-0.61334 z m 28.37335,-3.70667 v 1.97334 h -5.06667 v 16.61335 h -2.42667 v -16.61335 h -5.09334 v -1.97334 z m 16.32004,10.72001 q 0,0.69334 -0.08,1.46667 h -11.68002 q 0.13334,2.16001 1.46667,3.38667 1.36,1.20001 3.28,1.20001 1.57334,0 2.61334,-0.72001 1.06667,-0.74666 1.49334,-1.97333 h 2.61333 q -0.58666,2.10667 -2.34667,3.44 -1.76,1.30667 -4.37334,1.30667 -2.08,0 -3.73333,-0.93333 -1.62667,-0.93334 -2.56001,-2.64001 -0.93333,-1.73333 -0.93333,-4 0,-2.26667 0.90667,-3.97334 0.90666,-1.70667 2.53333,-2.61334 1.65334,-0.93333 3.78667,-0.93333 2.08001,0 3.68001,0.90667 1.6,0.90666 2.45334,2.50667 0.88,1.57333 0.88,3.57333 z m -2.50667,-0.50666 q 0,-1.38667 -0.61334,-2.37334 -0.61333,-1.01333 -1.68,-1.52 -1.04,-0.53334 -2.32,-0.53334 -1.84,0 -3.14667,1.17334 -1.28,1.17333 -1.46667,3.25334 z m 4.80002,1.04 q 0,-2.26667 0.90667,-3.94667 0.90667,-1.70667 2.50667,-2.64001 1.62667,-0.93333 3.70667,-0.93333 2.69334,0 4.42667,1.30667 1.76,1.30667 2.32,3.62667 h -2.61333 q -0.37334,-1.33334 -1.46667,-2.10667 -1.06667,-0.77334 -2.66667,-0.77334 -2.08,0 -3.36001,1.44001 -1.28,1.41333 -1.28,4.02667 0,2.64 1.28,4.08 1.28001,1.44001 3.36001,1.44001 1.6,0 2.66667,-0.74667 1.06667,-0.74667 1.46667,-2.13334 h 2.61333 q -0.58666,2.24 -2.34667,3.60001 -1.76,1.33333 -4.4,1.33333 -2.08,0 -3.70667,-0.93333 -1.6,-0.93334 -2.50667,-2.64001 -0.90667,-1.70667 -0.90667,-4 z m 24.34672,-7.54668 q 1.65333,0 2.98667,0.72 1.33333,0.69334 2.08,2.10667 0.77333,1.41334 0.77333,3.44001 v 8.61334 h -2.4 v -8.26668 q 0,-2.18667 -1.09333,-3.33333 -1.09334,-1.17334 -2.98667,-1.17334 -1.92001,0 -3.06667,1.2 -1.12001,1.2 -1.12001,3.49334 v 8.08001 h -2.42667 v -19.73336 h 2.42667 v 7.20001 q 0.72,-1.12 1.97334,-1.73333 1.28,-0.61334 2.85334,-0.61334 z m 16.93333,0 q 2.66667,0 4.32,1.62667 1.65334,1.6 1.65334,4.64001 v 8.61334 h -2.4 v -8.26668 q 0,-2.18667 -1.09334,-3.33333 -1.09333,-1.17334 -2.98667,-1.17334 -1.92,0 -3.06667,1.2 -1.12,1.2 -1.12,3.49334 v 8.08001 h -2.42667 v -14.61335 h 2.42667 v 2.08 q 0.72,-1.12 1.94667,-1.73333 1.25333,-0.61334 2.74667,-0.61334 z m 16.32,15.12002 q -2.05334,0 -3.73334,-0.93333 -1.65334,-0.93334 -2.61334,-2.64001 -0.93333,-1.73333 -0.93333,-4 0,-2.24 0.96,-3.94667 0.98667,-1.73334 2.66667,-2.64001 1.68,-0.93333 3.76,-0.93333 2.08001,0 3.76001,0.93333 1.68,0.90667 2.64,2.61334 0.98667,1.70667 0.98667,3.97334 0,2.26667 -1.01333,4 -0.98667,1.70667 -2.69334,2.64001 -1.70667,0.93333 -3.78667,0.93333 z m 0,-2.13333 q 1.30667,0 2.45333,-0.61334 1.14667,-0.61333 1.84001,-1.84 0.72,-1.22667 0.72,-2.98667 0,-1.76 -0.69334,-2.98667 -0.69333,-1.22667 -1.81333,-1.81334 -1.12,-0.61333 -2.42667,-0.61333 -1.33334,0 -2.45334,0.61333 -1.09333,0.58667 -1.76,1.81334 -0.66667,1.22667 -0.66667,2.98667 0,1.78667 0.64,3.01334 0.66667,1.22666 1.76,1.84 1.09334,0.58667 2.40001,0.58667 z m 13.12001,-17.84003 v 19.73336 h -2.42667 v -19.73336 z m 10.50668,19.97336 q -2.05334,0 -3.73334,-0.93333 -1.65333,-0.93334 -2.61333,-2.64001 -0.93334,-1.73333 -0.93334,-4 0,-2.24 0.96,-3.94667 0.98667,-1.73334 2.66667,-2.64001 1.68,-0.93333 3.76001,-0.93333 2.08,0 3.76,0.93333 1.68,0.90667 2.64001,2.61334 0.98666,1.70667 0.98666,3.97334 0,2.26667 -1.01333,4 -0.98667,1.70667 -2.69334,2.64001 -1.70667,0.93333 -3.78667,0.93333 z m 0,-2.13333 q 1.30667,0 2.45334,-0.61334 1.14667,-0.61333 1.84,-1.84 0.72,-1.22667 0.72,-2.98667 0,-1.76 -0.69333,-2.98667 -0.69334,-1.22667 -1.81334,-1.81334 -1.12,-0.61333 -2.42667,-0.61333 -1.33333,0 -2.45334,0.61333 -1.09333,0.58667 -1.76,1.81334 -0.66667,1.22667 -0.66667,2.98667 0,1.78667 0.64001,3.01334 0.66666,1.22666 1.76,1.84 1.09333,0.58667 2.4,0.58667 z m 16.72,-12.96002 q 1.89333,0 3.30667,0.82667 1.44,0.82666 2.13334,2.08 v -2.66667 h 2.45333 v 14.93335 q 0,2 -0.85333,3.54667 -0.85334,1.57334 -2.45334,2.45334 -1.57333,0.88 -3.68,0.88 -2.88001,0 -4.80001,-1.36 -1.92,-1.36 -2.26667,-3.70667 h 2.4 q 0.4,1.33333 1.65334,2.13333 1.25333,0.82667 3.01334,0.82667 2,0 3.25333,-1.25333 1.28001,-1.25334 1.28001,-3.52001 v -3.06667 q -0.72,1.28 -2.13334,2.13334 -1.41334,0.85333 -3.30667,0.85333 -1.94667,0 -3.54667,-0.96 -1.57334,-0.96 -2.48001,-2.69334 -0.90666,-1.73333 -0.90666,-3.94667 0,-2.24 0.90666,-3.92 0.90667,-1.70667 2.48001,-2.64001 1.6,-0.93333 3.54667,-0.93333 z m 5.44001,7.52001 q 0,-1.65334 -0.66667,-2.88001 -0.66667,-1.22666 -1.81334,-1.86666 -1.12,-0.66667 -2.48,-0.66667 -1.36,0 -2.48,0.64 -1.12,0.64 -1.78667,1.86667 -0.66667,1.22667 -0.66667,2.88 0,1.68 0.66667,2.93334 0.66667,1.22667 1.78667,1.89333 1.12,0.64001 2.48,0.64001 1.36,0 2.48,-0.64001 1.14667,-0.66666 1.81334,-1.89333 0.66667,-1.25334 0.66667,-2.90667 z m 19.1467,-7.28001 -8.80001,21.49336 h -2.50667 l 2.88,-7.04001 -5.89334,-14.45335 h 2.69334 l 4.58667,11.84001 4.53334,-11.84001 z m 20.05336,-3.97334 v 1.97334 h -8.08001 v 6.26667 h 6.56001 v 1.97334 h -6.56001 v 8.37334 h -2.42667 v -18.58669 z m 9.30666,18.82669 q -2.05333,0 -3.73333,-0.93333 -1.65334,-0.93334 -2.61334,-2.64001 -0.93334,-1.73333 -0.93334,-4 0,-2.24 0.96001,-3.94667 0.98666,-1.73334 2.66667,-2.64001 1.68,-0.93333 3.76,-0.93333 2.08,0 3.76,0.93333 1.68001,0.90667 2.64001,2.61334 0.98667,1.70667 0.98667,3.97334 0,2.26667 -1.01334,4 -0.98667,1.70667 -2.69334,2.64001 -1.70666,0.93333 -3.78667,0.93333 z m 0,-2.13333 q 1.30667,0 2.45334,-0.61334 1.14667,-0.61333 1.84,-1.84 0.72,-1.22667 0.72,-2.98667 0,-1.76 -0.69333,-2.98667 -0.69334,-1.22667 -1.81334,-1.81334 -1.12,-0.61333 -2.42667,-0.61333 -1.33333,0 -2.45333,0.61333 -1.09334,0.58667 -1.76001,1.81334 -0.66666,1.22667 -0.66666,2.98667 0,1.78667 0.64,3.01334 0.66667,1.22666 1.76,1.84 1.09334,0.58667 2.4,0.58667 z m 23.65336,-12.72002 v 14.61335 h -2.42667 v -2.16 q -0.69333,1.12 -1.94667,1.76 -1.22667,0.61333 -2.72,0.61333 -1.70667,0 -3.06667,-0.69333 -1.36001,-0.72 -2.16001,-2.13334 -0.77333,-1.41333 -0.77333,-3.44 v -8.56001 h 2.4 v 8.24001 q 0,2.16 1.09334,3.33334 1.09333,1.14667 2.98667,1.14667 1.94667,0 3.06667,-1.20001 1.12,-1.2 1.12,-3.49333 v -8.02668 z m 11.22667,-0.26667 q 2.66667,0 4.32001,1.62667 1.65333,1.6 1.65333,4.64001 v 8.61334 h -2.4 v -8.26668 q 0,-2.18667 -1.09333,-3.33333 -1.09334,-1.17334 -2.98667,-1.17334 -1.92001,0 -3.06668,1.2 -1.12,1.2 -1.12,3.49334 v 8.08001 h -2.42667 v -14.61335 h 2.42667 v 2.08 q 0.72,-1.12 1.94667,-1.73333 1.25334,-0.61334 2.74667,-0.61334 z m 12.90665,2.26667 v 8.61335 q 0,1.06666 0.45333,1.52 0.45334,0.42667 1.57334,0.42667 h 1.78667 v 2.05333 h -2.18667 q -2.02667,0 -3.04001,-0.93333 -1.01333,-0.93334 -1.01333,-3.06667 v -8.61335 h -1.89334 v -2 h 1.89334 v -3.68001 h 2.42667 v 3.68001 h 3.81334 v 2 z m 5.84002,5.25334 q 0,-2.24 0.90667,-3.92 0.90667,-1.70667 2.48,-2.64001 1.6,-0.93333 3.54667,-0.93333 1.92001,0 3.33334,0.82667 1.41334,0.82666 2.10667,2.08 v -2.66667 h 2.45334 v 14.61335 h -2.45334 v -2.72 q -0.72,1.28 -2.16,2.13333 -1.41334,0.82667 -3.30667,0.82667 -1.94667,0 -3.52001,-0.96 -1.57333,-0.96 -2.48,-2.69334 -0.90667,-1.73333 -0.90667,-3.94667 z m 12.37335,0.0267 q 0,-1.65334 -0.66667,-2.88001 -0.66666,-1.22666 -1.81333,-1.86666 -1.12,-0.66667 -2.48001,-0.66667 -1.36,0 -2.48,0.64 -1.12,0.64 -1.78667,1.86667 -0.66666,1.22667 -0.66666,2.88 0,1.68 0.66666,2.93334 0.66667,1.22667 1.78667,1.89333 1.12,0.64001 2.48,0.64001 1.36001,0 2.48001,-0.64001 1.14667,-0.66666 1.81333,-1.89333 0.66667,-1.25334 0.66667,-2.90667 z m 9.52003,-5.28001 v 8.61335 q 0,1.06666 0.45333,1.52 0.45333,0.42667 1.57334,0.42667 h 1.78666 v 2.05333 h -2.18666 q -2.02667,0 -3.04001,-0.93333 -1.01333,-0.93334 -1.01333,-3.06667 v -8.61335 h -1.89334 v -2 h 1.89334 v -3.68001 h 2.42667 v 3.68001 h 3.81333 v 2 z m 8.00002,-4.37334 q -0.69333,0 -1.17333,-0.48 -0.48,-0.48 -0.48,-1.17333 0,-0.69334 0.48,-1.17334 0.48,-0.48 1.17333,-0.48 0.66667,0 1.12,0.48 0.48001,0.48 0.48001,1.17334 0,0.69333 -0.48001,1.17333 -0.45333,0.48 -1.12,0.48 z m 1.17334,2.37334 v 14.61335 h -2.42667 v -14.61335 z m 10.5067,14.85335 q -2.05334,0 -3.73334,-0.93333 -1.65334,-0.93334 -2.61334,-2.64001 -0.93333,-1.73333 -0.93333,-4 0,-2.24 0.96,-3.94667 0.98667,-1.73334 2.66667,-2.64001 1.68,-0.93333 3.76,-0.93333 2.08001,0 3.76001,0.93333 1.68,0.90667 2.64,2.61334 0.98667,1.70667 0.98667,3.97334 0,2.26667 -1.01333,4 -0.98667,1.70667 -2.69334,2.64001 -1.70667,0.93333 -3.78667,0.93333 z m 0,-2.13333 q 1.30667,0 2.45333,-0.61334 1.14667,-0.61333 1.84001,-1.84 0.72,-1.22667 0.72,-2.98667 0,-1.76 -0.69334,-2.98667 -0.69333,-1.22667 -1.81333,-1.81334 -1.12,-0.61333 -2.42667,-0.61333 -1.33334,0 -2.45334,0.61333 -1.09333,0.58667 -1.76,1.81334 -0.66667,1.22667 -0.66667,2.98667 0,1.78667 0.64,3.01334 0.66667,1.22666 1.76,1.84 1.09334,0.58667 2.40001,0.58667 z m 17.81332,-12.98669 q 2.66667,0 4.32,1.62667 1.65334,1.6 1.65334,4.64001 v 8.61334 h -2.40001 v -8.26668 q 0,-2.18667 -1.09333,-3.33333 -1.09334,-1.17334 -2.98667,-1.17334 -1.92,0 -3.06667,1.2 -1.12,1.2 -1.12,3.49334 v 8.08001 h -2.42667 v -14.61335 h 2.42667 v 2.08 q 0.72,-1.12 1.94667,-1.73333 1.25333,-0.61334 2.74667,-0.61334 z m 9.04,7.52001 q 0,-2.24 0.90667,-3.92 0.90667,-1.70667 2.48,-2.64001 1.6,-0.93333 3.54667,-0.93333 1.92,0 3.33334,0.82667 1.41333,0.82666 2.10667,2.08 v -2.66667 h 2.45334 v 14.61335 h -2.45334 v -2.72 q -0.72,1.28 -2.16,2.13333 -1.41334,0.82667 -3.30667,0.82667 -1.94667,0 -3.52001,-0.96 -1.57333,-0.96 -2.48,-2.69334 -0.90667,-1.73333 -0.90667,-3.94667 z m 12.37335,0.0267 q 0,-1.65334 -0.66667,-2.88001 -0.66667,-1.22666 -1.81333,-1.86666 -1.12001,-0.66667 -2.48001,-0.66667 -1.36,0 -2.48,0.64 -1.12,0.64 -1.78667,1.86667 -0.66667,1.22667 -0.66667,2.88 0,1.68 0.66667,2.93334 0.66667,1.22667 1.78667,1.89333 1.12,0.64001 2.48,0.64001 1.36,0 2.48001,-0.64001 1.14666,-0.66666 1.81333,-1.89333 0.66667,-1.25334 0.66667,-2.90667 z m 8.98669,-12.40002 v 19.73336 h -2.42667 v -19.73336 z m 22.69337,1.14667 v 1.97334 h -5.06667 v 16.61335 h -2.42667 v -16.61335 h -5.09334 v -1.97334 z m 9.36002,18.82669 q -2.05333,0 -3.73334,-0.93333 -1.65333,-0.93334 -2.61333,-2.64001 -0.93334,-1.73333 -0.93334,-4 0,-2.24 0.96,-3.94667 0.98667,-1.73334 2.66667,-2.64001 1.68001,-0.93333 3.76001,-0.93333 2.08,0 3.76,0.93333 1.68001,0.90667 2.64001,2.61334 0.98666,1.70667 0.98666,3.97334 0,2.26667 -1.01333,4 -0.98667,1.70667 -2.69334,2.64001 -1.70667,0.93333 -3.78667,0.93333 z m 0,-2.13333 q 1.30667,0 2.45334,-0.61334 1.14667,-0.61333 1.84,-1.84 0.72,-1.22667 0.72,-2.98667 0,-1.76 -0.69333,-2.98667 -0.69334,-1.22667 -1.81334,-1.81334 -1.12,-0.61333 -2.42667,-0.61333 -1.33333,0 -2.45333,0.61333 -1.09334,0.58667 -1.76001,1.81334 -0.66666,1.22667 -0.66666,2.98667 0,1.78667 0.64,3.01334 0.66666,1.22666 1.76,1.84 1.09333,0.58667 2.4,0.58667 z m 17.06668,2.13333 q -2.05333,0 -3.73334,-0.93333 -1.65333,-0.93334 -2.61333,-2.64001 -0.93334,-1.73333 -0.93334,-4 0,-2.24 0.96,-3.94667 0.98667,-1.73334 2.66667,-2.64001 1.68001,-0.93333 3.76001,-0.93333 2.08,0 3.76,0.93333 1.68001,0.90667 2.64001,2.61334 0.98667,1.70667 0.98667,3.97334 0,2.26667 -1.01334,4 -0.98667,1.70667 -2.69334,2.64001 -1.70666,0.93333 -3.78667,0.93333 z m 0,-2.13333 q 1.30667,0 2.45334,-0.61334 1.14667,-0.61333 1.84,-1.84 0.72,-1.22667 0.72,-2.98667 0,-1.76 -0.69333,-2.98667 -0.69334,-1.22667 -1.81334,-1.81334 -1.12,-0.61333 -2.42667,-0.61333 -1.33333,0 -2.45333,0.61333 -1.09334,0.58667 -1.76001,1.81334 -0.66666,1.22667 -0.66666,2.98667 0,1.78667 0.64,3.01334 0.66666,1.22666 1.76,1.84 1.09333,0.58667 2.4,0.58667 z m 13.12001,-17.84003 v 19.73336 h -2.42667 v -19.73336 z m 5.38666,2.74667 q -0.69333,0 -1.17333,-0.48 -0.48,-0.48 -0.48,-1.17333 0,-0.69334 0.48,-1.17334 0.48,-0.48 1.17333,-0.48 0.66667,0 1.12001,0.48 0.48,0.48 0.48,1.17334 0,0.69333 -0.48,1.17333 -0.45334,0.48 -1.12001,0.48 z m 1.17334,2.37334 v 14.61335 h -2.42667 v -14.61335 z m 11.25337,-0.26667 q 2.66667,0 4.32,1.62667 1.65334,1.6 1.65334,4.64001 v 8.61334 h -2.40001 v -8.26668 q 0,-2.18667 -1.09333,-3.33333 -1.09333,-1.17334 -2.98667,-1.17334 -1.92,0 -3.06667,1.2 -1.12,1.2 -1.12,3.49334 v 8.08001 h -2.42667 v -14.61335 h 2.42667 v 2.08 q 0.72,-1.12 1.94667,-1.73333 1.25333,-0.61334 2.74667,-0.61334 z"
         id="path16" />
      <path
         style="font-size:26.6667px"
         d="m 682.11648,228.58627 q 1.89334,0 3.30667,0.82667 1.44001,0.82666 2.13334,2.08 v -2.66667 h 2.45334 v 14.93335 q 0,2 -0.85334,3.54667 -0.85333,1.57334 -2.45333,2.45334 -1.57334,0.88 -3.68001,0.88 -2.88,0 -4.80001,-1.36 -1.92,-1.36 -2.26667,-3.70667 h 2.40001 q 0.4,1.33333 1.65333,2.13333 1.25334,0.82667 3.01334,0.82667 2,0 3.25334,-1.25333 1.28,-1.25334 1.28,-3.52001 v -3.06667 q -0.72,1.28 -2.13334,2.13334 -1.41333,0.85333 -3.30667,0.85333 -1.94667,0 -3.54667,-0.96 -1.57333,-0.96 -2.48,-2.69334 -0.90667,-1.73333 -0.90667,-3.94667 0,-2.24 0.90667,-3.92 0.90667,-1.70667 2.48,-2.64001 1.6,-0.93333 3.54667,-0.93333 z m 5.44001,7.52001 q 0,-1.65334 -0.66667,-2.88001 -0.66667,-1.22666 -1.81333,-1.86666 -1.12001,-0.66667 -2.48001,-0.66667 -1.36,0 -2.48,0.64 -1.12,0.64 -1.78667,1.86667 -0.66667,1.22667 -0.66667,2.88 0,1.68 0.66667,2.93334 0.66667,1.22667 1.78667,1.89333 1.12,0.64001 2.48,0.64001 1.36,0 2.48001,-0.64001 1.14666,-0.66666 1.81333,-1.89333 0.66667,-1.25334 0.66667,-2.90667 z"
         id="path17" />
    </g>
  </g>
</svg>
