<?xml version="1.0" encoding="UTF-8" standalone="no"?>
<svg
   viewBox="0 0 548.24065 323.42152"
   version="1.1"
   id="svg1"
   sodipodi:docname="zeroth_settlement_solutions_logo.svg"
   width="548.24066"
   height="323.42151"
   inkscape:version="1.3.2 (091e20e, 2023-11-25)"
   xmlns:inkscape="http://www.inkscape.org/namespaces/inkscape"
   xmlns:sodipodi="http://sodipodi.sourceforge.net/DTD/sodipodi-0.dtd"
   xmlns="http://www.w3.org/2000/svg"
   xmlns:svg="http://www.w3.org/2000/svg">
  <defs
     id="defs1" />
  <sodipodi:namedview
     id="namedview1"
     pagecolor="#252525"
     bordercolor="#000000"
     borderopacity="0.25"
     inkscape:showpageshadow="2"
     inkscape:pageopacity="0.0"
     inkscape:pagecheckerboard="false"
     inkscape:deskcolor="#ffffff"
     inkscape:zoom="0.86607143"
     inkscape:cx="267.87629"
     inkscape:cy="181.27835"
     inkscape:window-width="1312"
     inkscape:window-height="671"
     inkscape:window-x="0"
     inkscape:window-y="34"
     inkscape:window-maximized="0"
     inkscape:current-layer="svg1" />
  <g
     id="g1"
     transform="translate(-62.127889,-56.63088)"
     style="stroke:none;stroke-opacity:1">
    <path
       style="fill:#ffffff;stroke:none;stroke-opacity:1"
       d="m 522.4,56.8 20,-0.16912 V 84.48 h 48.34698 c 9.2018,0.286685 18.7038,7.109918 18.69302,16.8 l 0.1792,68.96 H 589.44 v -65.6 H 542.4 v 65.6 l -20.12727,-2e-5 z"
       id="path21" />
    <path
       style="fill:#ffffff;stroke:none;stroke-opacity:1"
       d="m 458.25111,152.16 -0.006,-47.76456 -0.006,-47.764558 20,0.16912 0.1668,27.68 h 32.96232 l -0.1692,19.999998 -32.80426,0.1658 0.1642,45.59419 32.8,0.1658 v 19.83419 l -35.68,-0.0702 c -8.72417,0 -17.44834,-9.00489 -17.42786,-18.00978 z"
       id="path20" />
    <path
       id="path19"
       style="fill:#3399ff;fill-opacity:1;stroke:none;stroke-opacity:1"
       d="m 351.51953,64.160156 c -7.09394,0.06318 -14.85458,7.703575 -14.89648,16.523438 L 336.80075,156 c -0.1777,8.95331 8.14072,14.24 15.67774,14.18945 l 75.20117,0.039 c 8.45904,0.0115 16.19675,-7.52871 16.15039,-15.82813 l 0.01,-73.96289 c 0.0341,-9.610507 -7.96309,-16.196526 -14.8789,-16.277344 H 390.24044 Z M 429.1582,76.789062 C 401.07667,99.83607 350.73983,141.3584 349.43945,142.4375 V 80.886719 c 0.009,-1.963513 1.26376,-3.851192 3.63282,-3.925781 z m 2.19141,14.570313 0.006,61.556515 c 0.0201,2.70497 -1.59649,4.67319 -4.31641,4.68372 l -76.06445,0.1738 c 4.3008,-3.29949 79.29223,-65.513392 80.37486,-66.414035 z" />
    <path
       style="fill:#ffffff;stroke:none;stroke-opacity:1"
       d="m 258.56,102.1115 c 0,-8.823068 9.36,-17.646135 18.72,-17.646062 l 49.28,0.17456 V 104.48 l -48.16,0.164 v 65.596 h -19.84 z"
       id="path13" />
    <path
       id="path12"
       style="fill:#ffffff;stroke:none;stroke-opacity:1"
       d="m 177.11914,84.640625 c -8.31841,-0.0012 -16.63683,8.159568 -16.63672,16.320315 l -0.1836,50.65429 c -0.005,9.62144 8.36583,18.55873 17.46094,18.58985 l 69.59961,0.0352 v -19.83789 l -66.71875,-0.16212 c -0.0594,-4.21352 -0.11653,-8.42707 -0.1738,-12.64062 h 66.89258 v -35.70508 c 0,-8.629742 -8.23926,-17.259484 -16.47852,-17.253905 z m 3.36133,19.996095 46.87891,0.164 c 0.0594,4.21287 0.11654,8.42577 0.1738,12.63867 h -47.05273 z" />
    <path
       style="fill:#ffffff;stroke:none;stroke-opacity:1"
       d="M 62.155692,170.24 62.127889,148.8288 119.0199,104.8 c -18.96306,2.4e-4 -37.92572,-0.1911 -56.88873,-0.18297 L 62.165259,84.64 H 149.28 l 0.1684,21.44927 L 92.102031,150.4 H 149.44 v 19.84 c -29.02003,0 -87.284308,0 -87.284308,0 z"
       id="path10" />
  </g>
  <path
     style="font-size:83.6496px;font-family:Orbitron;-inkscape-font-specification:Orbitron;text-align:center;text-anchor:middle;fill:#ffffff;stroke-width:30.4103"
     d="m 38.772198,203.765 q -2.760437,0 -5.102626,-1.33839 -2.258539,-1.42205 -3.680582,-3.68059 -1.338393,-2.34219 -1.338393,-5.10262 v -0.6692 h 6.859266 v 0.6692 q 0,1.33839 0.920146,2.34219 1.003795,0.92014 2.342189,0.92014 h 29.11006 q 1.338393,0 2.258539,-0.92014 1.003795,-1.0038 1.003795,-2.34219 v -7.44482 q 0,-1.33839 -1.003795,-2.25854 -0.920146,-1.00379 -2.258539,-1.00379 h -29.11006 q -2.760437,0 -5.102626,-1.33839 -2.258539,-1.42205 -3.680582,-3.68059 -1.338393,-2.34218 -1.338393,-5.10262 v -7.44482 q 0,-2.76043 1.338393,-5.01897 1.422043,-2.34219 3.680582,-3.68058 2.342189,-1.42205 5.102626,-1.42205 h 29.11006 q 2.844086,0 5.102625,1.42205 2.342189,1.33839 3.680582,3.68058 1.422043,2.25854 1.422043,5.01897 v 0.6692 h -6.942916 v -0.6692 q 0,-1.33839 -1.003795,-2.25853 -0.920146,-1.0038 -2.258539,-1.0038 h -29.11006 q -1.338394,0 -2.342189,1.0038 -0.920146,0.92014 -0.920146,2.25853 v 7.44482 q 0,1.33839 0.920146,2.34219 1.003795,0.92014 2.342189,0.92014 h 29.11006 q 2.844086,0 5.102625,1.42205 2.342189,1.33839 3.680582,3.68058 1.422043,2.25854 1.422043,5.01897 v 7.44482 q 0,2.76043 -1.422043,5.10262 -1.338393,2.25854 -3.680582,3.68059 -2.258539,1.33839 -5.102625,1.33839 z m 56.379946,0 q -2.760436,0 -5.102625,-1.33839 -2.258539,-1.42205 -3.680582,-3.68059 -1.338394,-2.34219 -1.338394,-5.10262 v -28.27357 q 0,-2.76043 1.338394,-5.01897 1.422043,-2.34219 3.680582,-3.68058 2.342189,-1.42205 5.102625,-1.42205 H 124.2622 q 2.84409,0 5.10263,1.42205 2.34219,1.33839 3.68058,3.68058 1.42205,2.25854 1.42205,5.01897 v 17.56642 H 91.88981 v 10.70715 q 0,1.33839 0.920146,2.34219 1.003795,0.92014 2.342188,0.92014 H 134.46746 V 203.765 Z M 91.88981,176.07698 h 35.63473 v -10.70715 q 0,-1.33839 -1.0038,-2.25853 -0.92014,-1.0038 -2.25854,-1.0038 H 95.152144 q -1.338393,0 -2.342188,1.0038 -0.920146,0.92014 -0.920146,2.25853 z m 61.31511,27.68802 q -2.84409,0 -5.18628,-1.33839 -2.25854,-1.42205 -3.59693,-3.68059 -1.33839,-2.34219 -1.33839,-5.10262 v -54.28859 h 6.85926 v 15.89342 h 20.99605 v 6.85927 h -20.99605 v 31.5359 q 0,1.33839 0.92015,2.34219 1.0038,0.92014 2.34219,0.92014 h 17.73371 v 6.85927 z m 34.29632,0 q -2.84409,0 -5.18628,-1.33839 -2.25854,-1.42205 -3.59693,-3.68059 -1.33839,-2.34219 -1.33839,-5.10262 v -54.28859 h 6.85926 v 15.89342 h 20.99605 v 6.85927 H 184.2389 v 31.5359 q 0,1.33839 0.92015,2.34219 1.00379,0.92014 2.34219,0.92014 h 17.73371 v 6.85927 z m 34.21267,0 q -2.76043,0 -5.10262,-1.33839 -2.25854,-1.42205 -3.68058,-3.68059 -1.3384,-2.34219 -1.3384,-5.10262 v -54.28859 h 6.85927 v 54.28859 q 0,1.33839 0.92014,2.34219 1.0038,0.92014 2.34219,0.92014 h 8.19766 v 6.85927 z m 23.92385,0 q -2.76044,0 -5.10263,-1.33839 -2.25854,-1.42205 -3.68058,-3.68059 -1.3384,-2.34219 -1.3384,-5.10262 v -28.27357 q 0,-2.76043 1.3384,-5.01897 1.42204,-2.34219 3.68058,-3.68058 2.34219,-1.42205 5.10263,-1.42205 h 29.11006 q 2.84408,0 5.10262,1.42205 2.34219,1.33839 3.68058,3.68058 1.42205,2.25854 1.42205,5.01897 v 17.56642 h -42.57765 v 10.70715 q 0,1.33839 0.92015,2.34219 1.00379,0.92014 2.34219,0.92014 h 39.31531 v 6.85927 z m -3.26234,-27.68802 h 35.63473 v -10.70715 q 0,-1.33839 -1.0038,-2.25853 -0.92014,-1.0038 -2.25853,-1.0038 h -29.11006 q -1.3384,0 -2.34219,1.0038 -0.92015,0.92014 -0.92015,2.25853 z m 51.27717,27.68802 v 0 -48.51677 h 64.07559 q 2.84408,0 5.10262,1.42205 2.34219,1.33839 3.68058,3.68058 1.3384,2.25854 1.3384,5.01897 V 203.765 h -6.77562 v -38.39517 q 0,-1.33839 -1.00379,-2.25853 -1.0038,-1.0038 -2.34219,-1.0038 h -20.15956 q -1.33839,0 -2.34218,1.0038 -0.92015,0.92014 -0.92015,2.25853 V 203.765 h -6.94292 v -38.39517 q 0,-1.33839 -1.00379,-2.25853 -0.92015,-1.0038 -2.25854,-1.0038 h -20.2432 q -1.3384,0 -2.34219,1.0038 -0.92015,0.92014 -0.92015,2.25853 V 203.765 Z m 91.68,0 q -2.76043,0 -5.10262,-1.33839 -2.25854,-1.42205 -3.68058,-3.68059 -1.3384,-2.34219 -1.3384,-5.10262 v -28.27357 q 0,-2.76043 1.3384,-5.01897 1.42204,-2.34219 3.68058,-3.68058 2.34219,-1.42205 5.10262,-1.42205 h 29.11006 q 2.84409,0 5.10263,1.42205 2.34219,1.33839 3.68058,3.68058 1.42205,2.25854 1.42205,5.01897 v 17.56642 h -42.57765 v 10.70715 q 0,1.33839 0.92015,2.34219 1.00379,0.92014 2.34218,0.92014 h 39.31532 v 6.85927 z m -3.26233,-27.68802 h 35.63473 v -10.70715 q 0,-1.33839 -1.0038,-2.25853 -0.92014,-1.0038 -2.25854,-1.0038 h -29.11006 q -1.33839,0 -2.34218,1.0038 -0.92015,0.92014 -0.92015,2.25853 z m 51.27715,27.68802 v 0 -48.51677 h 39.31531 q 2.76044,0 5.01898,1.42205 2.34219,1.33839 3.68058,3.68058 1.42204,2.25854 1.42204,5.01897 V 203.765 h -6.85927 v -38.39517 q 0,-1.33839 -1.00379,-2.25853 -0.92015,-1.0038 -2.25854,-1.0038 h -29.11006 q -1.33839,0 -2.34219,1.0038 -1.00379,0.92014 -1.00379,2.25853 V 203.765 Z m 68.25798,0 q -2.84408,0 -5.18627,-1.33839 -2.25854,-1.42205 -3.59693,-3.68059 -1.3384,-2.34219 -1.3384,-5.10262 v -54.28859 h 6.85927 v 15.89342 h 20.99605 v 6.85927 h -20.99605 v 31.5359 q 0,1.33839 0.92014,2.34219 1.0038,0.92014 2.34219,0.92014 h 17.73372 v 6.85927 z"
     id="path2" />
  <path
     style="font-size:83.6496px;font-family:Orbitron;-inkscape-font-specification:Orbitron;text-align:center;text-anchor:middle;fill:#ffffff;stroke-width:30.4103"
     d="m 78.045734,293.9206 q -2.760437,0 -5.102626,-1.33839 -2.258539,-1.42204 -3.680582,-3.68058 -1.338394,-2.34219 -1.338394,-5.10263 v -0.66919 h 6.859267 v 0.66919 q 0,1.3384 0.920146,2.34219 1.003795,0.92015 2.342189,0.92015 H 107.1558 q 1.33839,0 2.25854,-0.92015 1.00379,-1.00379 1.00379,-2.34219 v -7.44481 q 0,-1.33839 -1.00379,-2.25854 -0.92015,-1.0038 -2.25854,-1.0038 H 78.045734 q -2.760437,0 -5.102626,-1.33839 -2.258539,-1.42204 -3.680582,-3.68058 -1.338394,-2.34219 -1.338394,-5.10263 v -7.44481 q 0,-2.76044 1.338394,-5.01898 1.422043,-2.34219 3.680582,-3.68058 2.342189,-1.42204 5.102626,-1.42204 H 107.1558 q 2.84408,0 5.10262,1.42204 2.34219,1.33839 3.68059,3.68058 1.42204,2.25854 1.42204,5.01898 v 0.6692 h -6.94292 v -0.6692 q 0,-1.33839 -1.00379,-2.25854 -0.92015,-1.0038 -2.25854,-1.0038 H 78.045734 q -1.338394,0 -2.342189,1.0038 -0.920146,0.92015 -0.920146,2.25854 v 7.44481 q 0,1.3384 0.920146,2.34219 1.003795,0.92015 2.342189,0.92015 H 107.1558 q 2.84408,0 5.10262,1.42204 2.34219,1.33839 3.68059,3.68058 1.42204,2.25854 1.42204,5.01898 v 7.44481 q 0,2.76044 -1.42204,5.10263 -1.3384,2.25854 -3.68059,3.68058 -2.25854,1.33839 -5.10262,1.33839 z m 57.634646,0 q -2.76044,0 -5.10262,-1.33839 -2.25854,-1.42204 -3.68059,-3.68058 -1.33839,-2.34219 -1.33839,-5.10263 v -28.27356 q 0,-2.76044 1.33839,-5.01898 1.42205,-2.34219 3.68059,-3.68058 2.34218,-1.42204 5.10262,-1.42204 h 29.11006 q 2.84409,0 5.10263,1.42204 2.34219,1.33839 3.68058,3.68058 1.42204,2.25854 1.42204,5.01898 V 283.799 q 0,2.76044 -1.42204,5.10263 -1.33839,2.25854 -3.68058,3.68058 -2.25854,1.33839 -5.10263,1.33839 z m 0,-6.85926 h 29.11006 q 1.33839,0 2.25854,-0.92015 1.0038,-1.00379 1.0038,-2.34219 v -28.27356 q 0,-1.33839 -1.0038,-2.25854 -0.92015,-1.0038 -2.25854,-1.0038 h -29.11006 q -1.33839,0 -2.34219,1.0038 -0.92014,0.92015 -0.92014,2.25854 V 283.799 q 0,1.3384 0.92014,2.34219 1.0038,0.92015 2.34219,0.92015 z m 56.29609,6.85926 q -2.76044,0 -5.10262,-1.33839 -2.25855,-1.42204 -3.68058,-3.68058 -1.3384,-2.34219 -1.3384,-5.10263 v -54.28859 h 6.85927 V 283.799 q 0,1.3384 0.92015,2.34219 1.00379,0.92015 2.34218,0.92015 h 8.19767 v 6.85926 z m 25.34584,0 q -2.76044,0 -5.10263,-1.33839 -2.25854,-1.42204 -3.68058,-3.68058 -1.33839,-2.34219 -1.33839,-5.10263 v -38.39516 h 6.85926 V 283.799 q 0,1.3384 0.92015,2.34219 1.0038,0.92015 2.34219,0.92015 h 29.11006 q 1.33839,0 2.34219,-0.92015 1.00379,-1.00379 1.00379,-2.34219 v -38.39516 h 6.85927 V 283.799 q 0,2.76044 -1.42204,5.10263 -1.3384,2.25854 -3.68059,3.68058 -2.25854,1.33839 -5.10262,1.33839 z m 56.88173,0 q -2.84408,0 -5.18626,-1.33839 -2.25854,-1.42204 -3.59693,-3.68058 -1.3384,-2.34219 -1.3384,-5.10263 v -54.28859 h 6.85927 v 15.89343 h 20.99605 v 6.85926 h -20.99605 v 31.5359 q 0,1.3384 0.92014,2.34219 1.0038,0.92015 2.34219,0.92015 h 17.73372 v 6.85926 z m 24.50926,0 v 0 -48.51676 h 6.85927 v 48.51676 z m 0,-57.55092 v 0 -6.85927 h 6.85927 v 6.85927 z m 27.43708,57.55092 q -2.76044,0 -5.10263,-1.33839 -2.25853,-1.42204 -3.68058,-3.68058 -1.3384,-2.34219 -1.3384,-5.10263 v -28.27356 q 0,-2.76044 1.3384,-5.01898 1.42204,-2.34219 3.68058,-3.68058 2.34219,-1.42204 5.10263,-1.42204 h 29.11006 q 2.84408,0 5.10262,1.42204 2.34219,1.33839 3.68058,3.68058 1.42205,2.25854 1.42205,5.01898 V 283.799 q 0,2.76044 -1.42205,5.10263 -1.33839,2.25854 -3.68058,3.68058 -2.25854,1.33839 -5.10262,1.33839 z m 0,-6.85926 h 29.11006 q 1.33839,0 2.25854,-0.92015 1.00379,-1.00379 1.00379,-2.34219 v -28.27356 q 0,-1.33839 -1.00379,-2.25854 -0.92015,-1.0038 -2.25854,-1.0038 h -29.11006 q -1.3384,0 -2.34219,1.0038 -0.92015,0.92015 -0.92015,2.25854 V 283.799 q 0,1.3384 0.92015,2.34219 1.00379,0.92015 2.34219,0.92015 z m 46.76014,6.85926 v 0 -48.51676 h 39.31531 q 2.76044,0 5.01898,1.42204 2.34219,1.33839 3.68058,3.68058 1.42204,2.25854 1.42204,5.01898 v 38.39516 h -6.85926 v -38.39516 q 0,-1.33839 -1.0038,-2.25854 -0.92014,-1.0038 -2.25854,-1.0038 h -29.11006 q -1.33839,0 -2.34219,1.0038 -1.00379,0.92015 -1.00379,2.25854 v 38.39516 z m 67.83974,0 q -2.76044,0 -5.10263,-1.33839 -2.25854,-1.42204 -3.68058,-3.68058 -1.33839,-2.34219 -1.33839,-5.10263 v -0.66919 h 6.85926 v 0.66919 q 0,1.3384 0.92015,2.34219 1.00379,0.92015 2.34219,0.92015 h 29.11006 q 1.33839,0 2.25854,-0.92015 1.00379,-1.00379 1.00379,-2.34219 v -7.44481 q 0,-1.33839 -1.00379,-2.25854 -0.92015,-1.0038 -2.25854,-1.0038 h -29.11006 q -2.76044,0 -5.10263,-1.33839 -2.25854,-1.42204 -3.68058,-3.68058 -1.33839,-2.34219 -1.33839,-5.10263 v -7.44481 q 0,-2.76044 1.33839,-5.01898 1.42204,-2.34219 3.68058,-3.68058 2.34219,-1.42204 5.10263,-1.42204 h 29.11006 q 2.84408,0 5.10262,1.42204 2.34219,1.33839 3.68058,3.68058 1.42205,2.25854 1.42205,5.01898 v 0.6692 h -6.94292 v -0.6692 q 0,-1.33839 -1.00379,-2.25854 -0.92015,-1.0038 -2.25854,-1.0038 h -29.11005 q -1.3384,0 -2.3422,1.0038 -0.92014,0.92015 -0.92014,2.25854 v 7.44481 q 0,1.3384 0.92014,2.34219 1.00379,0.92015 2.3422,0.92015 h 29.11005 q 2.84408,0 5.10262,1.42204 2.34219,1.33839 3.68058,3.68058 1.42206,2.25854 1.42206,5.01898 v 7.44481 q 0,2.76044 -1.42206,5.10263 -1.33839,2.25854 -3.68058,3.68058 -2.25854,1.33839 -5.10262,1.33839 z"
     id="path3" />
</svg>
