<?xml version="1.0" encoding="utf-8"?>
<svg viewBox="0 0 672 240" xmlns="http://www.w3.org/2000/svg">
  <g id="g1" transform="matrix(1, 0, 0, 1, 0, 3.552713678800501e-15)">
    <path style="fill: rgb(255, 255, 255);" d="m 522.4,56.8 20,-0.16912 V 84.48 h 48.34698 c 9.2018,0.286685 18.7038,7.109918 18.69302,16.8 l 0.1792,68.96 H 589.44 v -65.6 H 542.4 v 65.6 l -20.12727,-2e-5 z" id="path21"/>
    <path style="fill: rgb(255, 255, 255);" d="m 458.25111,152.16 -0.006,-47.76456 -0.006,-47.764558 20,0.16912 0.1668,27.68 h 32.96232 l -0.1692,19.999998 -32.80426,0.1658 0.1642,45.59419 32.8,0.1658 v 19.83419 l -35.68,-0.0702 c -8.72417,0 -17.44834,-9.00489 -17.42786,-18.00978 z" id="path20"/>
    <path id="path19" style="fill:#3399ff;fill-opacity:1;stroke:none" d="m 351.51953,64.160156 c -7.09394,0.06318 -14.85458,7.703575 -14.89648,16.523438 L 336.80075,156 c -0.1777,8.95331 8.14072,14.24 15.67774,14.18945 l 75.20117,0.039 c 8.45904,0.0115 16.19675,-7.52871 16.15039,-15.82813 l 0.01,-73.96289 c 0.0341,-9.610507 -7.96309,-16.196526 -14.8789,-16.277344 H 390.24044 Z M 429.1582,76.789062 C 401.07667,99.83607 350.73983,141.3584 349.43945,142.4375 V 80.886719 c 0.009,-1.963513 1.26376,-3.851192 3.63282,-3.925781 z m 2.19141,14.570313 0.006,61.556515 c 0.0201,2.70497 -1.59649,4.67319 -4.31641,4.68372 l -76.06445,0.1738 c 4.3008,-3.29949 79.29223,-65.513392 80.37486,-66.414035 z"/>
    <path style="fill: rgb(255, 255, 255);" d="m 258.56,102.1115 c 0,-8.823068 9.36,-17.646135 18.72,-17.646062 l 49.28,0.17456 V 104.48 l -48.16,0.164 v 65.596 h -19.84 z" id="path13"/>
    <path id="path12" style="fill: rgb(255, 255, 255);" d="m 177.11914,84.640625 c -8.31841,-0.0012 -16.63683,8.159568 -16.63672,16.320315 l -0.1836,50.65429 c -0.005,9.62144 8.36583,18.55873 17.46094,18.58985 l 69.59961,0.0352 v -19.83789 l -66.71875,-0.16212 c -0.0594,-4.21352 -0.11653,-8.42707 -0.1738,-12.64062 h 66.89258 v -35.70508 c 0,-8.629742 -8.23926,-17.259484 -16.47852,-17.253905 z m 3.36133,19.996095 46.87891,0.164 c 0.0594,4.21287 0.11654,8.42577 0.1738,12.63867 h -47.05273 z"/>
    <path style="fill: rgb(255, 255, 255);" d="M 62.155692,170.24 62.127889,148.8288 119.0199,104.8 c -18.96306,2.4e-4 -37.92572,-0.1911 -56.88873,-0.18297 L 62.165259,84.64 H 149.28 l 0.1684,21.44927 L 92.102031,150.4 H 149.44 v 19.84 c -29.02003,0 -87.284308,0 -87.284308,0 z" id="path10"/>
  </g>
</svg>