<?xml version="1.0" encoding="UTF-8" standalone="no"?>
<svg
   viewBox="0 0 548.24084 220.58379"
   version="1.1"
   id="svg1"
   sodipodi:docname="zeroth_tech_logo.svg"
   width="548.24084"
   height="220.58379"
   inkscape:version="1.3.2 (091e20e, 2023-11-25)"
   xmlns:inkscape="http://www.inkscape.org/namespaces/inkscape"
   xmlns:sodipodi="http://sodipodi.sourceforge.net/DTD/sodipodi-0.dtd"
   xmlns="http://www.w3.org/2000/svg"
   xmlns:svg="http://www.w3.org/2000/svg">
  <defs
     id="defs1" />
  <sodipodi:namedview
     id="namedview1"
     pagecolor="#252525"
     bordercolor="#000000"
     borderopacity="0.25"
     inkscape:showpageshadow="2"
     inkscape:pageopacity="0.0"
     inkscape:pagecheckerboard="false"
     inkscape:deskcolor="#ffffff"
     inkscape:zoom="0.86607143"
     inkscape:cx="168.57732"
     inkscape:cy="63.505155"
     inkscape:window-width="1312"
     inkscape:window-height="671"
     inkscape:window-x="0"
     inkscape:window-y="34"
     inkscape:window-maximized="0"
     inkscape:current-layer="svg1" />
  <g
     id="g1"
     transform="translate(-62.127889,-56.63088)"
     style="stroke:none;stroke-opacity:1">
    <path
       style="fill:#ffffff;stroke:none;stroke-opacity:1"
       d="m 522.4,56.8 20,-0.16912 V 84.48 h 48.34698 c 9.2018,0.286685 18.7038,7.109918 18.69302,16.8 l 0.1792,68.96 H 589.44 v -65.6 H 542.4 v 65.6 l -20.12727,-2e-5 z"
       id="path21" />
    <path
       style="fill:#ffffff;stroke:none;stroke-opacity:1"
       d="m 458.25111,152.16 -0.006,-47.76456 -0.006,-47.764558 20,0.16912 0.1668,27.68 h 32.96232 l -0.1692,19.999998 -32.80426,0.1658 0.1642,45.59419 32.8,0.1658 v 19.83419 l -35.68,-0.0702 c -8.72417,0 -17.44834,-9.00489 -17.42786,-18.00978 z"
       id="path20" />
    <path
       id="path19"
       style="fill:#3399ff;fill-opacity:1;stroke:none;stroke-opacity:1"
       d="m 351.51953,64.160156 c -7.09394,0.06318 -14.85458,7.703575 -14.89648,16.523438 L 336.80075,156 c -0.1777,8.95331 8.14072,14.24 15.67774,14.18945 l 75.20117,0.039 c 8.45904,0.0115 16.19675,-7.52871 16.15039,-15.82813 l 0.01,-73.96289 c 0.0341,-9.610507 -7.96309,-16.196526 -14.8789,-16.277344 H 390.24044 Z M 429.1582,76.789062 C 401.07667,99.83607 350.73983,141.3584 349.43945,142.4375 V 80.886719 c 0.009,-1.963513 1.26376,-3.851192 3.63282,-3.925781 z m 2.19141,14.570313 0.006,61.556515 c 0.0201,2.70497 -1.59649,4.67319 -4.31641,4.68372 l -76.06445,0.1738 c 4.3008,-3.29949 79.29223,-65.513392 80.37486,-66.414035 z" />
    <path
       style="fill:#ffffff;stroke:none;stroke-opacity:1"
       d="m 258.56,102.1115 c 0,-8.823068 9.36,-17.646135 18.72,-17.646062 l 49.28,0.17456 V 104.48 l -48.16,0.164 v 65.596 h -19.84 z"
       id="path13" />
    <path
       id="path12"
       style="fill:#ffffff;stroke:none;stroke-opacity:1"
       d="m 177.11914,84.640625 c -8.31841,-0.0012 -16.63683,8.159568 -16.63672,16.320315 l -0.1836,50.65429 c -0.005,9.62144 8.36583,18.55873 17.46094,18.58985 l 69.59961,0.0352 v -19.83789 l -66.71875,-0.16212 c -0.0594,-4.21352 -0.11653,-8.42707 -0.1738,-12.64062 h 66.89258 v -35.70508 c 0,-8.629742 -8.23926,-17.259484 -16.47852,-17.253905 z m 3.36133,19.996095 46.87891,0.164 c 0.0594,4.21287 0.11654,8.42577 0.1738,12.63867 h -47.05273 z" />
    <path
       style="fill:#ffffff;stroke:none;stroke-opacity:1"
       d="M 62.155692,170.24 62.127889,148.8288 119.0199,104.8 c -18.96306,2.4e-4 -37.92572,-0.1911 -56.88873,-0.18297 L 62.165259,84.64 H 149.28 l 0.1684,21.44927 L 92.102031,150.4 H 149.44 v 19.84 c -29.02003,0 -87.284308,0 -87.284308,0 z"
       id="path10" />
  </g>
  <path
     style="-inkscape-font-specification:Orbitron;fill:#ffffff;stroke-width:11.7904;stroke:none;stroke-opacity:1"
     d="m 11.737423,199.69755 q -3.08753,0 -5.630201,-1.45296 -2.451862,-1.54376 -3.904817,-3.99562 -1.452956,-2.54267 -1.452956,-5.53939 v -58.9355 h 7.446396 v 17.25384 H 30.98908 v 7.4464 H 8.195845 v 34.23526 q 0,1.45295 0.998907,2.54267 1.089716,0.9989 2.542671,0.9989 H 30.98908 v 7.4464 z m 37.050348,0 q -2.99672,0 -5.53939,-1.45296 -2.45187,-1.54376 -3.99563,-3.99562 -1.452957,-2.54267 -1.452957,-5.53939 V 158.0159 q 0,-2.99672 1.452957,-5.44858 1.54376,-2.54268 3.99563,-3.99563 2.54267,-1.54377 5.53939,-1.54377 h 31.60177 q 3.08753,0 5.53939,1.54377 2.54268,1.45295 3.99563,3.99563 1.54377,2.45186 1.54377,5.44858 v 19.07003 h -46.22214 v 11.62365 q 0,1.45295 0.99891,2.54267 1.08971,0.9989 2.54267,0.9989 h 42.68056 v 7.4464 z m -3.54158,-30.05801 h 38.68493 V 158.0159 q 0,-1.45296 -1.08972,-2.45186 -0.9989,-1.08972 -2.45186,-1.08972 h -31.60177 q -1.45296,0 -2.54267,1.08972 -0.99891,0.9989 -0.99891,2.45186 z m 64.565599,30.05801 q -2.99672,0 -5.53939,-1.45296 -2.45186,-1.54376 -3.99563,-3.99562 -1.452949,-2.54267 -1.452949,-5.53939 V 158.0159 q 0,-2.99672 1.452949,-5.44858 1.54377,-2.54268 3.99563,-3.99563 2.54267,-1.54377 5.53939,-1.54377 h 42.49894 v 7.4464 h -42.49894 q -1.45295,0 -2.54267,1.08972 -0.99891,0.9989 -0.99891,2.45186 v 30.69368 q 0,1.45295 0.99891,2.54267 1.08972,0.9989 2.54267,0.9989 h 42.68056 v 7.4464 z m 51.03509,0 v 0 -69.92347 h 7.4464 v 17.25384 h 35.23416 q 2.99672,0 5.44858,1.54377 2.54267,1.45295 3.99563,3.99563 1.54376,2.45186 1.54376,5.44858 v 41.68165 h -7.44639 V 158.0159 q 0,-1.45296 -1.08972,-2.45186 -0.99891,-1.08972 -2.45186,-1.08972 h -31.60178 q -1.45295,0 -2.54267,1.08972 -1.08971,0.9989 -1.08971,2.45186 v 41.68165 z m 60.6608,0 v 0 -52.66963 h 42.68056 q 2.99672,0 5.44858,1.54377 2.54267,1.45295 3.99563,3.99563 1.54376,2.45186 1.54376,5.44858 v 41.68165 h -7.4464 V 158.0159 q 0,-1.45296 -1.08971,-2.45186 -0.99891,-1.08972 -2.45186,-1.08972 h -31.60178 q -1.45295,0 -2.54267,1.08972 -1.08972,0.9989 -1.08972,2.45186 v 41.68165 z m 72.55694,0 q -2.99672,0 -5.53939,-1.45296 -2.45186,-1.54376 -3.99563,-3.99562 -1.45295,-2.54267 -1.45295,-5.53939 V 158.0159 q 0,-2.99672 1.45295,-5.44858 1.54377,-2.54268 3.99563,-3.99563 2.54267,-1.54377 5.53939,-1.54377 h 31.60178 q 3.08753,0 5.53939,1.54377 2.54267,1.45295 3.99563,3.99563 1.54376,2.45186 1.54376,5.44858 v 30.69368 q 0,2.99672 -1.54376,5.53939 -1.45296,2.45186 -3.99563,3.99562 -2.45186,1.45296 -5.53939,1.45296 z m 0,-7.4464 h 31.60178 q 1.45295,0 2.45186,-0.9989 1.08972,-1.08972 1.08972,-2.54267 V 158.0159 q 0,-1.45296 -1.08972,-2.45186 -0.99891,-1.08972 -2.45186,-1.08972 h -31.60178 q -1.45295,0 -2.54267,1.08972 -0.99891,0.9989 -0.99891,2.45186 v 30.69368 q 0,1.45295 0.99891,2.54267 1.08972,0.9989 2.54267,0.9989 z m 61.11483,7.4464 q -2.99672,0 -5.53939,-1.45296 -2.45186,-1.54376 -3.99563,-3.99562 -1.45295,-2.54267 -1.45295,-5.53939 v -58.9355 h 7.44639 v 58.9355 q 0,1.45295 0.99891,2.54267 1.08971,0.9989 2.54267,0.9989 h 8.89935 v 7.4464 z m 26.42561,0 q -2.99672,0 -5.53939,-1.45296 -2.45187,-1.54376 -3.99563,-3.99562 -1.45296,-2.54267 -1.45296,-5.53939 V 158.0159 q 0,-2.99672 1.45296,-5.44858 1.54376,-2.54268 3.99563,-3.99563 2.54267,-1.54377 5.53939,-1.54377 h 31.60177 q 3.08753,0 5.5394,1.54377 2.54267,1.45295 3.99562,3.99563 1.54377,2.45186 1.54377,5.44858 v 30.69368 q 0,2.99672 -1.54377,5.53939 -1.45295,2.45186 -3.99562,3.99562 -2.45187,1.45296 -5.5394,1.45296 z m 0,-7.4464 h 31.60177 q 1.45296,0 2.45187,-0.9989 1.08971,-1.08972 1.08971,-2.54267 V 158.0159 q 0,-1.45296 -1.08971,-2.45186 -0.99891,-1.08972 -2.45187,-1.08972 h -31.60177 q -1.45296,0 -2.54267,1.08972 -0.99891,0.9989 -0.99891,2.45186 v 30.69368 q 0,1.45295 0.99891,2.54267 1.08971,0.9989 2.54267,0.9989 z m 60.66084,28.24182 v 0 -7.5372 h 32.87311 q 1.45295,0 2.45186,-1.08972 1.08972,-0.99891 1.08972,-2.45186 v -9.71664 h -35.14336 q -2.99672,0 -5.53939,-1.45296 -2.45186,-1.54376 -3.99563,-3.99562 -1.45295,-2.54267 -1.45295,-5.53939 V 158.0159 q 0,-2.99672 1.45295,-5.44858 1.54377,-2.54268 3.99563,-3.99563 2.54267,-1.54377 5.53939,-1.54377 h 31.60178 q 3.08753,0 5.53939,1.54377 2.54267,1.45295 3.99563,3.99563 1.45295,2.45186 1.45295,5.44858 v 51.39829 q 0,3.08753 -1.45295,5.53939 -1.45296,2.54267 -3.99563,3.99563 -2.45186,1.54376 -5.53939,1.54376 z m 1.27133,-28.24182 h 31.60178 q 1.45295,0 2.45186,-0.9989 1.08972,-1.08972 1.08972,-2.54267 V 158.0159 q 0,-1.45296 -1.08972,-2.45186 -0.99891,-1.08972 -2.45186,-1.08972 h -31.60178 q -1.45295,0 -2.54267,1.08972 -0.99891,0.9989 -0.99891,2.45186 v 30.69368 q 0,1.45295 0.99891,2.54267 1.08972,0.9989 2.54267,0.9989 z m 60.84255,28.33263 v 0 -7.5372 h 32.87311 q 1.45295,0 2.45186,-1.08972 1.08972,-0.99891 1.08972,-2.45186 v -9.80745 h -35.14336 q -2.99672,0 -5.53939,-1.45296 -2.45186,-1.54376 -3.99563,-3.99562 -1.45295,-2.54267 -1.45295,-5.53939 v -41.50004 h 7.44639 v 41.50004 q 0,1.45295 0.99891,2.54267 1.08972,0.9989 2.54267,0.9989 h 31.60178 q 1.45295,0 2.45186,-0.9989 1.08972,-1.08972 1.08972,-2.54267 v -41.50004 h 7.44639 V 209.505 q 0,3.08753 -1.45295,5.53939 -1.45296,2.54267 -3.99563,3.99563 -2.45186,1.54376 -5.53939,1.54376 z"
     id="text1"
     aria-label="technology" />
</svg>
