<?xml version="1.0" encoding="utf-8" standalone="yes"?>
<!DOCTYPE svg PUBLIC "-//W3C//DTD SVG 1.1//EN" "http://www.w3.org/Graphics/SVG/1.1/DTD/svg11.dtd">
<svg width="692" height="145" viewBox="0 0 692 145" style="fill:none;stroke:none;fill-rule:evenodd;clip-rule:evenodd;stroke-linecap:round;stroke-linejoin:round;stroke-miterlimit:1.5;" version="1.1" xmlns="http://www.w3.org/2000/svg" xmlns:xlink="http://www.w3.org/1999/xlink"><style id="fontImports">@import url("https://fonts.googleapis.com/css2?family=Shantell+Sans:wght@300..800&amp;display=block");</style><g id="items" style="isolation: isolate"><g id="blend" style="mix-blend-mode:screen"><g id="g-root-5.head_sy_1d3n5kp1hbfp55-fill" data-item-order="-15547" data-item-id="5.head_sy_1d3n5kp1hbfp55" data-item-class="ScenePart Indexed Stroke ColorStrokeGray" data-item-index="4" data-renderer-id="0" transform="translate(656, 50.996002197265625)"></g><g id="g-root-5.s2_sy_1d3n5kp1hbfp56-fill" data-item-order="-15545" data-item-id="5.s2_sy_1d3n5kp1hbfp56" data-item-class="ScenePart Indexed Stroke ColorStrokeGray" data-item-index="4" data-renderer-id="0" transform="translate(599, 63)"></g><g id="g-root-5.cu-smallCircle_sy_1d3n5kp1hbfp54-fill" data-item-order="-15543" data-item-id="5.cu-smallCircle_sy_1d3n5kp1hbfp54" data-item-class="ScenePart Indexed Stroke ColorStrokeGray" data-item-index="4" data-renderer-id="0" transform="translate(593, 60)"></g><g id="g-root-3.s3_sy_zn5ywp1hlb2tr-fill" data-item-order="-15541" data-item-id="3.s3_sy_zn5ywp1hlb2tr" data-item-class="ScenePart Indexed Stroke ColorStrokeGray" data-item-index="3" data-renderer-id="0" transform="translate(431, 62.996002197265625)"></g><g id="g-root-4.cu-smallCircle_sy_1d3n5kp1hbfp52-fill" data-item-order="-15539" data-item-id="4.cu-smallCircle_sy_1d3n5kp1hbfp52" data-item-class="ScenePart Indexed Stroke ColorStrokeGray" data-item-index="3" data-renderer-id="0" transform="translate(425, 60)"></g><g id="g-root-2.s4_sy_1cymha11hlb18u-fill" data-item-order="-15537" data-item-id="2.s4_sy_1cymha11hlb18u" data-item-class="ScenePart Indexed Stroke ColorStrokeGray" data-item-index="2" data-renderer-id="0" transform="translate(263, 63)"></g><g id="g-root-3.cu-smallCircle_sy_1d3n5kp1hbfp50-fill" data-item-order="-15535" data-item-id="3.cu-smallCircle_sy_1d3n5kp1hbfp50" data-item-class="ScenePart Indexed Stroke ColorStrokeGray" data-item-index="2" data-renderer-id="0" transform="translate(257, 60)"></g><g id="g-root-1.s5_sy_1q9gik91hlb2to-fill" data-item-order="-15533" data-item-id="1.s5_sy_1q9gik91hlb2to" data-item-class="ScenePart Indexed Indexed_1 Stroke ColorStrokeGray" data-item-index="1" data-renderer-id="0" transform="translate(95, 63)"></g><g id="g-root-1.s6_sy_1lu9hix1hlb0g5-fill" data-item-order="-15531" data-item-id="1.s6_sy_1lu9hix1hlb0g5" data-item-class="ScenePart Indexed Indexed_1 Stroke ColorStrokeGray" data-item-index="1" data-renderer-id="0" transform="translate(20, 62.996002197265625)"></g><g id="g-root-2.cu-smallCircle_sy_1d3n5kp1hbfp4y-fill" data-item-order="-15529" data-item-id="2.cu-smallCircle_sy_1d3n5kp1hbfp4y" data-item-class="ScenePart Indexed Indexed_1 Stroke ColorStrokeGray" data-item-index="1" data-renderer-id="0" transform="translate(89, 60)"></g><g id="g-root-fold_144vlh51jjdtz4-fill" data-item-order="0" data-item-id="fold_144vlh51jjdtz4" data-item-class="Icon Stroke SceneTarget Indexed Indexed_1 ColorStrokeGray" data-item-index="1" data-renderer-id="0" transform="translate(68, 3)"></g><g id="g-root-mail_1hbysc91kn2d4y-fill" data-item-order="0" data-item-id="mail_1hbysc91kn2d4y" data-item-class="Icon Stroke SceneTarget Indexed ColorStrokeGray" data-item-index="2" data-renderer-id="0" transform="translate(236, 3)"></g><g id="g-root-2_4njwik1hv2878-fill" data-item-order="0" data-item-id="2_4njwik1hv2878" data-item-class="Icon Stroke SceneTarget Indexed ColorStrokeGray" data-item-index="3" data-renderer-id="0" transform="translate(404, 3)"></g><g id="g-root-sear_4my1kp1jjdurv-fill" data-item-order="0" data-item-id="sear_4my1kp1jjdurv" data-item-class="Icon Stroke SceneTarget Indexed ColorStrokeGray" data-item-index="4" data-renderer-id="0" transform="translate(572, 3)"></g><g id="g-root-tx_inputgat_m9unax1jjkv0m-fill" data-item-order="0" data-item-id="tx_inputgat_m9unax1jjkv0m" data-item-class="Label Stroke SceneTarget Indexed Indexed_1 ColorStrokeGray" data-item-index="1" data-renderer-id="0" transform="translate(2, 75)"><g id="tx_inputgat_m9unax1jjkv0m-fill" stroke="none" fill="#CCCCCC"><g><text style="font: 20px &quot;Shantell Sans&quot;, cursive; white-space: pre;"><tspan x="65.36" y="35.5" dominant-baseline="ideographic">source </tspan><tspan x="14.66" y="59.5" dominant-baseline="ideographic">documents / data</tspan></text></g></g></g><g id="g-root-tx_guidedin_8z0m0p1jjktfs-fill" data-item-order="0" data-item-id="tx_guidedin_8z0m0p1jjktfs" data-item-class="Label Stroke SceneTarget Indexed ColorStrokeGray" data-item-index="2" data-renderer-id="0" transform="translate(212, 75)"><g id="tx_guidedin_8z0m0p1jjktfs-fill" stroke="none" fill="#CCCCCC"><g><text style="font: 20px &quot;Shantell Sans&quot;, cursive; white-space: pre;"><tspan x="25.35" y="35.5" dominant-baseline="ideographic">guided </tspan><tspan x="12.87" y="59.5" dominant-baseline="ideographic">interview</tspan></text></g></g></g><g id="g-root-tx_contextu_de7n211jjkvtb-fill" data-item-order="0" data-item-id="tx_contextu_de7n211jjkvtb" data-item-class="Label Stroke SceneTarget Indexed ColorStrokeGray" data-item-index="3" data-renderer-id="0" transform="translate(374, 75)"><g id="tx_contextu_de7n211jjkvtb-fill" stroke="none" fill="#CCCCCC"><g><text style="font: 20px &quot;Shantell Sans&quot;, cursive; white-space: pre;"><tspan x="16.39" y="35.5" dominant-baseline="ideographic">integrate </tspan><tspan x="24.29" y="59.5" dominant-baseline="ideographic">context</tspan></text></g></g></g><g id="g-root-tx_tailored_4j73w91jjku81-fill" data-item-order="0" data-item-id="tx_tailored_4j73w91jjku81" data-item-class="Label Stroke SceneTarget Indexed ColorStrokeGray" data-item-index="4" data-renderer-id="0" transform="translate(524, 75)"><g id="tx_tailored_4j73w91jjku81-fill" stroke="none" fill="#CCCCCC"><g><text style="font: 20px &quot;Shantell Sans&quot;, cursive; white-space: pre;"><tspan x="15.44" y="35.5" dominant-baseline="ideographic">AI optimized </tspan><tspan x="31.31" y="59.5" dominant-baseline="ideographic">document</tspan></text></g></g></g><g id="g-root-5.head_sy_1d3n5kp1hbfp55-stroke" data-item-order="-15547" data-item-id="5.head_sy_1d3n5kp1hbfp55" data-item-class="ScenePart Indexed Stroke ColorStrokeGray" data-item-index="4" data-renderer-id="0" transform="translate(656, 50.996002197265625)"><g id="5.head_sy_1d3n5kp1hbfp55-stroke" fill="none" stroke-linecap="round" stroke-linejoin="round" stroke-miterlimit="4" stroke="#CCCCCC" stroke-width="4"><g><path d="M 10 34.003998C 13.1 29.303998 18.5 26.503998 22 22.003998C 18.1 17.903998 14.8 13.003998 10 10.003998M 10 33.999998L 22 21.991998L 10.016 9.999998"></path></g></g></g><g id="g-root-5.s2_sy_1d3n5kp1hbfp56-stroke" data-item-order="-15545" data-item-id="5.s2_sy_1d3n5kp1hbfp56" data-item-class="ScenePart Indexed Stroke ColorStrokeGray" data-item-index="4" data-renderer-id="0" transform="translate(599, 63)"><g id="5.s2_sy_1d3n5kp1hbfp56-stroke" fill="none" stroke-linecap="round" stroke-linejoin="round" stroke-miterlimit="4" stroke="#CCCCCC" stroke-width="4"><g><path d="M 10 10C 10 10 25.9 10.4 42.4 10C 59.5 9.6 77.4 10.3 79 10M 10 10C 10 10 75.84 10 79 10"></path></g></g></g><g id="g-root-5.cu-smallCircle_sy_1d3n5kp1hbfp54-stroke" data-item-order="-15543" data-item-id="5.cu-smallCircle_sy_1d3n5kp1hbfp54" data-item-class="ScenePart Indexed Stroke ColorStrokeGray" data-item-index="4" data-renderer-id="0" transform="translate(593, 60)"><g id="5.cu-smallCircle_sy_1d3n5kp1hbfp54-stroke" fill="none" stroke-linecap="round" stroke-linejoin="round" stroke-miterlimit="4" stroke="#CCCCCC" stroke-width="4"><g><path d="M 13 16C 14.7 15.9 16 14.7 16 13C 16 11.3 14.5 9.4 13 10C 11.5 10.6 10 11.3 10 13C 10 14.7 11.4 16.3 13 16M 13 16C 14.657 16 16 14.657 16 13C 16 11.343 14.657 10 13 10C 11.343 10 10 11.343 10 13C 10 14.657 11.343 16 13 16Z"></path></g></g></g><g id="g-root-3.s3_sy_zn5ywp1hlb2tr-stroke" data-item-order="-15541" data-item-id="3.s3_sy_zn5ywp1hlb2tr" data-item-class="ScenePart Indexed Stroke ColorStrokeGray" data-item-index="3" data-renderer-id="0" transform="translate(431, 62.996002197265625)"><g id="3.s3_sy_zn5ywp1hlb2tr-stroke" fill="none" stroke-linecap="round" stroke-linejoin="round" stroke-miterlimit="4" stroke="#CCCCCC" stroke-width="4"><g><path d="M 10 10.003998C 29.5 11.803998 49.3 8.203998 68.8 10.003998C 86.8 11.603998 105 9.603998 123 10.003998C 139.4 10.403998 155.8 8.103998 172 10.003998M 10 9.999998L 172 10.003998"></path></g></g></g><g id="g-root-4.cu-smallCircle_sy_1d3n5kp1hbfp52-stroke" data-item-order="-15539" data-item-id="4.cu-smallCircle_sy_1d3n5kp1hbfp52" data-item-class="ScenePart Indexed Stroke ColorStrokeGray" data-item-index="3" data-renderer-id="0" transform="translate(425, 60)"><g id="4.cu-smallCircle_sy_1d3n5kp1hbfp52-stroke" fill="none" stroke-linecap="round" stroke-linejoin="round" stroke-miterlimit="4" stroke="#CCCCCC" stroke-width="4"><g><path d="M 13 16C 14.6 16.2 16.1 14.6 16 13C 15.9 11.3 14.7 10 13 10C 11.3 10 9.8 11.4 10 13C 10.2 14.6 11.4 16.6 13 16M 13 16C 14.657 16 16 14.657 16 13C 16 11.343 14.657 10 13 10C 11.343 10 10 11.343 10 13C 10 14.657 11.343 16 13 16Z"></path></g></g></g><g id="g-root-2.s4_sy_1cymha11hlb18u-stroke" data-item-order="-15537" data-item-id="2.s4_sy_1cymha11hlb18u" data-item-class="ScenePart Indexed Stroke ColorStrokeGray" data-item-index="2" data-renderer-id="0" transform="translate(263, 63)"><g id="2.s4_sy_1cymha11hlb18u-stroke" fill="none" stroke-linecap="round" stroke-linejoin="round" stroke-miterlimit="4" stroke="#CCCCCC" stroke-width="4"><g><path d="M 10 10C 36.4 11.4 62.9 10.4 89.3 10C 116.8 9.6 144.4 9.8 172 10M 10 10L 172 10"></path></g></g></g><g id="g-root-3.cu-smallCircle_sy_1d3n5kp1hbfp50-stroke" data-item-order="-15535" data-item-id="3.cu-smallCircle_sy_1d3n5kp1hbfp50" data-item-class="ScenePart Indexed Stroke ColorStrokeGray" data-item-index="2" data-renderer-id="0" transform="translate(257, 60)"><g id="3.cu-smallCircle_sy_1d3n5kp1hbfp50-stroke" fill="none" stroke-linecap="round" stroke-linejoin="round" stroke-miterlimit="4" stroke="#CCCCCC" stroke-width="4"><g><path d="M 13 16C 14.6 16.5 15.5 14.6 16 13C 16.5 11.4 14.6 9.5 13 10C 11.4 10.5 9.7 11.4 10 13C 10.3 14.6 11.4 15.8 13 16M 13 16C 14.657 16 16 14.657 16 13C 16 11.343 14.657 10 13 10C 11.343 10 10 11.343 10 13C 10 14.657 11.343 16 13 16Z"></path></g></g></g><g id="g-root-1.s5_sy_1q9gik91hlb2to-stroke" data-item-order="-15533" data-item-id="1.s5_sy_1q9gik91hlb2to" data-item-class="ScenePart Indexed Indexed_1 Stroke ColorStrokeGray" data-item-index="1" data-renderer-id="0" transform="translate(95, 63)"><g id="1.s5_sy_1q9gik91hlb2to-stroke" fill="none" stroke-linecap="round" stroke-linejoin="round" stroke-miterlimit="4" stroke="#CCCCCC" stroke-width="4"><g><path d="M 10 10C 27.4 11.1 45 10.6 62.4 10C 82.1 9.3 101.7 9.8 121.4 10C 138.2 10.2 155.2 8.6 172 10M 10 10L 172 10"></path></g></g></g><g id="g-root-1.s6_sy_1lu9hix1hlb0g5-stroke" data-item-order="-15531" data-item-id="1.s6_sy_1lu9hix1hlb0g5" data-item-class="ScenePart Indexed Indexed_1 Stroke ColorStrokeGray" data-item-index="1" data-renderer-id="0" transform="translate(20, 62.996002197265625)"><g id="1.s6_sy_1lu9hix1hlb0g5-stroke" fill="none" stroke-linecap="round" stroke-linejoin="round" stroke-miterlimit="4" stroke="#CCCCCC" stroke-width="4"><g><path d="M 10 10.003998C 10 10.003998 75.9 9.503998 79 10.003998M 10 9.999998C 10 9.999998 75.837 9.999998 78.998 9.999998"></path></g></g></g><g id="g-root-2.cu-smallCircle_sy_1d3n5kp1hbfp4y-stroke" data-item-order="-15529" data-item-id="2.cu-smallCircle_sy_1d3n5kp1hbfp4y" data-item-class="ScenePart Indexed Indexed_1 Stroke ColorStrokeGray" data-item-index="1" data-renderer-id="0" transform="translate(89, 60)"><g id="2.cu-smallCircle_sy_1d3n5kp1hbfp4y-stroke" fill="none" stroke-linecap="round" stroke-linejoin="round" stroke-miterlimit="4" stroke="#CCCCCC" stroke-width="4"><g><path d="M 13 16C 14.6 16.2 15.4 14.5 16 13C 16.6 11.5 14.6 9.7 13 10C 11.4 10.3 10.2 11.4 10 13C 9.8 14.6 11.4 15.9 13 16M 13 16C 14.657 16 16 14.657 16 13C 16 11.343 14.657 10 13 10C 11.343 10 10 11.343 10 13C 10 14.657 11.343 16 13 16Z"></path></g></g></g><g id="g-root-fold_144vlh51jjdtz4-stroke" data-item-order="0" data-item-id="fold_144vlh51jjdtz4" data-item-class="Icon Stroke SceneTarget Indexed Indexed_1 ColorStrokeGray" data-item-index="1" data-renderer-id="0" transform="translate(68, 3)"><g id="fold_144vlh51jjdtz4-stroke" fill="none" stroke-linecap="round" stroke-linejoin="round" stroke-miterlimit="4" stroke="#CCCCCC" stroke-width="2"><g><path d="M 56.285713 42.57143C 55.942856 40.857143 54.57143 39.828571 52.857143 39.142857C 49.428574 38.457146 46 39.828571 42.57143 39.142857C 42.914288 40.514286 42.228569 41.542858 42.57143 42.57143C 37.085716 43.942856 30.914286 44.285713 25.428572 42.57143C 25.428572 41.542858 25.428572 40.514286 25.428572 39.142857C 22 38.799999 18.571428 40.171429 15.142858 39.142857C 13.428572 38.799999 11.371428 40.857143 11.714286 42.57143C 12.4 46 11.714286 49.428574 11.714286 52.857143C 11.714286 54.914288 13.428572 56.971428 15.142858 56.285713C 27.485714 53.542858 40.171429 55.942856 52.857143 56.285713C 54.914288 56.628574 55.942856 54.914288 56.285713 52.857143C 57.314285 49.771431 55.942856 46 56.285713 42.57143M 15.142858 28.857143C 27.828571 27.828571 40.857143 32.628571 52.857143 28.857143M 15.142858 18.571428C 27.485714 15.828571 40.171429 18.571428 52.857143 18.571428M 56.285713 42.708572C 56.285713 40.815025 54.750694 39.279999 52.857143 39.279999L 42.57143 39.279999L 42.57143 42.708572L 25.428572 42.708572L 25.428572 39.279999L 15.142858 39.279999C 13.24931 39.279999 11.714286 40.815025 11.714286 42.708572L 11.714286 52.994286C 11.714286 54.887836 13.24931 56.422859 15.142858 56.422859L 52.857143 56.422859C 54.750694 56.422859 56.285713 54.887836 56.285713 52.994286ZM 15.142858 28.994286L 52.857143 28.994286M 15.142858 18.70857L 52.857143 18.70857"></path></g></g></g><g id="g-root-mail_1hbysc91kn2d4y-stroke" data-item-order="0" data-item-id="mail_1hbysc91kn2d4y" data-item-class="Icon Stroke SceneTarget Indexed ColorStrokeGray" data-item-index="2" data-renderer-id="0" transform="translate(236, 3)"><g id="mail_1hbysc91kn2d4y-stroke" fill="none" stroke-linecap="round" stroke-linejoin="round" stroke-miterlimit="4" stroke="#CCCCCC" stroke-width="2"><g><path d="M 42.57143 32.285713C 43.942856 36.742859 38.799999 40.514286 34 40.857143C 29.200001 41.200001 24.742859 37.085716 25.428572 32.285713C 26.114285 28.514286 26.800001 24.057142 25.428572 20.285715C 23.714287 15.828571 29.542856 10.342857 34 11.714286C 38.457146 13.428572 43.942856 15.828571 42.57143 20.285715C 41.542858 24.057142 41.542858 28.514286 42.57143 32.285713M 51.142857 34C 52.171429 37.771431 49.085712 41.542858 46.685715 44.971428C 44.285713 48.057144 39.828571 49.771431 35.714287 49.428574C 34.685715 49.428574 33.314285 49.771431 32.285713 49.428574C 28.514286 48.057144 24.4 47.714287 21.314285 44.971428C 18.571428 41.885715 18.228571 37.771431 16.857143 34M 34 49.428574C 34.342857 51.828571 34.342857 53.885715 34 56.285713M 42.57143 32.285713C 42.57143 37.019585 38.733868 40.857143 34 40.857143C 29.266132 40.857143 25.428572 37.019585 25.428572 32.285713L 25.428572 20.285715C 25.428572 15.551846 29.266132 11.714286 34 11.714286C 38.733868 11.714286 42.57143 15.551846 42.57143 20.285715ZM 51.142857 34L 51.142857 34C 51.151985 38.094704 49.529411 42.024326 46.634014 44.919727C 43.738613 47.815125 39.80899 49.437702 35.714283 49.42857L 32.285713 49.428574C 28.19101 49.437702 24.261385 47.815125 21.365986 44.919727C 18.470587 42.024326 16.848013 38.094704 16.857143 34L 16.857143 34M 34 49.428574L 34 56.285713"></path></g></g></g><g id="g-root-2_4njwik1hv2878-stroke" data-item-order="0" data-item-id="2_4njwik1hv2878" data-item-class="Icon Stroke SceneTarget Indexed ColorStrokeGray" data-item-index="3" data-renderer-id="0" transform="translate(404, 3)"><g id="2_4njwik1hv2878-stroke" fill="none" stroke-linecap="round" stroke-linejoin="round" stroke-miterlimit="4" stroke="#CCCCCC" stroke-width="2"><g><path d="M 32 15C 32 28.200001 38.400002 36.400002 53 36C 39.799999 39 33.799999 43.400002 32 57C 34.799999 44.200001 26 37 11 36C 24.4 36.400002 28.799999 29 32 15M 45 11C 45.400002 13 44.400002 15.2 45 17M 42 14C 43.799999 13.2 46.200001 14.6 48 14M 54 47C 54.400002 49 54.200001 51 54 53M 51 50C 53 50 55 50.400002 57 50M 32 15C 31.948 28.200001 38.360001 35.672001 53 36C 39.424 35.947998 32.690002 43.228001 32 57C 31.870001 44 26.062 35.982002 11 36C 24.476 35.812 31.950001 29.308001 32 15ZM 45 11L 45 17M 42 14L 48 14M 54 47L 54 53M 51 50L 57 50"></path></g></g></g><g id="g-root-sear_4my1kp1jjdurv-stroke" data-item-order="0" data-item-id="sear_4my1kp1jjdurv" data-item-class="Icon Stroke SceneTarget Indexed ColorStrokeGray" data-item-index="4" data-renderer-id="0" transform="translate(572, 3)"><g id="sear_4my1kp1jjdurv-stroke" fill="none" stroke-linecap="round" stroke-linejoin="round" stroke-miterlimit="4" stroke="#CCCCCC" stroke-width="2"><g><path d="M 29 51C 24 53 18 53 13 51C 12 50.599998 11 50 11 49C 11.8 38.400002 11.2 27.6 11 17C 11 15.8 11.8 15 13 15C 22.4 15.4 31.799999 14 41 15C 42 15.2 42.599998 16 43 17C 44.400002 20.799999 42.799999 25 43 29M 19 19C 19.200001 16.4 19.799999 13.6 19 11M 27 19C 27.799999 16.4 27.200001 13.6 27 11M 35 19C 34.200001 16.4 35.799999 13.6 35 11M 35 44C 36.799999 48.799999 39 53.200001 44 53.200001C 49 53 52.200001 49 53.200001 44C 54 39.200001 49 35.599998 44 35C 39.200001 34.400002 34.799999 39 35 44M 57 57C 55.200001 54.599998 52.200001 53 50.599998 50.599998M 29 51L 13 51C 11.895431 51 11 50.104568 11 49L 11 17C 11 15.895431 11.895431 15 13 15L 41 15C 42.104568 15 43 15.895431 43 17L 43 29M 19 19L 19 11M 27 19L 27 11M 35 19L 35 11M 35 44.057999C 35 49.060593 39.055405 53.115997 44.057999 53.115997C 49.060593 53.115997 53.115997 49.060593 53.115997 44.057999C 53.115997 39.055405 49.060593 35 44.057999 35C 39.055405 35 35 39.055405 35 44.057999ZM 57 57L 50.504002 50.504002"></path></g></g></g><g id="g-root-tx_inputgat_m9unax1jjkv0m-stroke" data-item-order="0" data-item-id="tx_inputgat_m9unax1jjkv0m" data-item-class="Label Stroke SceneTarget Indexed Indexed_1 ColorStrokeGray" data-item-index="1" data-renderer-id="0" transform="translate(2, 75)"></g><g id="g-root-tx_guidedin_8z0m0p1jjktfs-stroke" data-item-order="0" data-item-id="tx_guidedin_8z0m0p1jjktfs" data-item-class="Label Stroke SceneTarget Indexed ColorStrokeGray" data-item-index="2" data-renderer-id="0" transform="translate(212, 75)"></g><g id="g-root-tx_contextu_de7n211jjkvtb-stroke" data-item-order="0" data-item-id="tx_contextu_de7n211jjkvtb" data-item-class="Label Stroke SceneTarget Indexed ColorStrokeGray" data-item-index="3" data-renderer-id="0" transform="translate(374, 75)"></g><g id="g-root-tx_tailored_4j73w91jjku81-stroke" data-item-order="0" data-item-id="tx_tailored_4j73w91jjku81" data-item-class="Label Stroke SceneTarget Indexed ColorStrokeGray" data-item-index="4" data-renderer-id="0" transform="translate(524, 75)"></g></g></g></svg>