<?xml version="1.0" encoding="UTF-8" standalone="no"?>
<svg
   viewBox="0 0 107.21711 106.06839"
   version="1.1"
   id="svg1"
   width="107.21711"
   height="106.06837"
   xmlns="http://www.w3.org/2000/svg"
   xmlns:svg="http://www.w3.org/2000/svg">
  <defs
     id="defs1" />
  <path
     id="path19"
     style="fill:#3399ff;fill-opacity:1;stroke:none;stroke-opacity:1"
     d="M 14.89648,7e-5 C 7.80254,0.06325 0.0419,7.703645 0,16.523508 L 0.1777,91.839914 C 0,100.79322 8.31842,106.07991 15.85544,106.02936 l 75.20117,0.039 c 8.45904,0.0115 16.19675,-7.528706 16.15039,-15.828126 l 0.01,-73.96289 C 107.2511,6.666837 99.25391,0.080818 92.3381,0 H 53.61739 Z M 92.53515,12.628976 C 64.45362,35.675984 14.11678,77.198314 12.8164,78.277414 V 16.726633 c 0.009,-1.963513 1.26376,-3.851192 3.63282,-3.925781 z m 2.19141,14.570313 0.006,61.556515 c 0.0201,2.70497 -1.59649,4.67319 -4.31641,4.68372 l -76.06445,0.1738 c 4.3008,-3.29949 79.29223,-65.513392 80.37486,-66.414035 z" />
</svg>
